<svg xmlns="http://www.w3.org/2000/svg" width="791.44" height="84.14" viewBox="0 0 791.44 84.14"><path d="M163.27,16.63c13.13,1,23.51,10.09,23.51,23.52" fill="none" stroke="#000" stroke-linecap="round" stroke-linejoin="round" stroke-width="2"/><path d="M135.05,39.86c0-13.48,10.45-22.35,23.64-23.24" fill="none" stroke="#000" stroke-linecap="round" stroke-linejoin="round" stroke-width="2"/><rect x="132.9" y="40.25" width="4.31" height="4.31" stroke-width="2" stroke="#000" stroke-linecap="round" stroke-linejoin="round" fill="none"/><rect x="184.62" y="40.25" width="4.31" height="4.31" stroke-width="2" stroke="#000" stroke-linecap="round" stroke-linejoin="round" fill="none"/><rect x="158.76" y="14.39" width="4.31" height="4.31" stroke-width="2" stroke="#000" stroke-linecap="round" stroke-linejoin="round" fill="none"/><circle cx="135.05" cy="16.54" r="2.16" fill="none" stroke="#000" stroke-linecap="round" stroke-linejoin="round" stroke-width="2"/><circle cx="186.78" cy="16.54" r="2.16" fill="none" stroke="#000" stroke-linecap="round" stroke-linejoin="round" stroke-width="2"/><line x1="163.28" y1="16.54" x2="184.62" y2="16.54" fill="none" stroke="#000" stroke-linecap="round" stroke-linejoin="round" stroke-width="2"/><line x1="137.21" y1="16.54" x2="158.48" y2="16.54" fill="none" stroke="#000" stroke-linecap="round" stroke-linejoin="round" stroke-width="2"/><path d="M160.92,27.32,148,47.15a32.44,32.44,0,0,1,7.33,14.65h11.21a31.35,31.35,0,0,1,7.33-14.65Z" fill="none" stroke="#000" stroke-linecap="round" stroke-linejoin="round" stroke-width="2"/><line x1="160.92" y1="42.41" x2="160.92" y2="27.97" fill="none" stroke="#000" stroke-linecap="round" stroke-linejoin="round" stroke-width="2"/><circle cx="160.92" cy="46.72" r="4.31" fill="none" stroke="#000" stroke-linecap="round" stroke-linejoin="round" stroke-width="2"/><rect x="154.45" y="61.8" width="12.93" height="6.47" stroke-width="2" stroke="#000" stroke-linecap="round" stroke-linejoin="round" fill="none"/><path d="M242.84,44.46h2.34a7,7,0,0,1,0,14h-2.34" fill="none" stroke="#000" stroke-linecap="round" stroke-linejoin="round" stroke-width="2"/><path d="M242.84,65.52a4.68,4.68,0,0,1-4.68,4.68H217.1a4.67,4.67,0,0,1-4.68-4.68V41a1.17,1.17,0,0,1,1.17-1.17h28.08A1.18,1.18,0,0,1,242.84,41Z" fill="none" stroke="#000" stroke-linecap="round" stroke-linejoin="round" stroke-width="2"/><path d="M242.56,16.53c2.41,3.68-1.17,5.7-2,7.68A3.62,3.62,0,0,0,242.27,29a2.75,2.75,0,0,0,.36.15C249.42,32.06,251.44,18.68,242.56,16.53Z" fill="none" stroke="#000" stroke-linecap="round" stroke-linejoin="round" stroke-width="2"/><line x1="235.82" y1="39.78" x2="241.92" y2="28.81" fill="none" stroke="#000" stroke-linecap="round" stroke-linejoin="round" stroke-width="2"/><line x1="244.34" y1="29.62" x2="240.5" y2="39.78" fill="none" stroke="#000" stroke-linecap="round" stroke-linejoin="round" stroke-width="2"/><polygon points="221.78 39.78 214.75 39.78 211.25 32.76 210.07 25.74 215.93 29.25 221.78 39.78" fill="none" stroke="#000" stroke-linecap="round" stroke-linejoin="round" stroke-width="2"/><line x1="211.25" y1="32.76" x2="215.93" y2="29.25" fill="none" stroke="#000" stroke-linecap="round" stroke-linejoin="round" stroke-width="2"/><path d="M233.48,17.55a1.17,1.17,0,0,0-1.17-1.17h-7a1.17,1.17,0,0,0-1.17,1.17V39.78h9.36Z" fill="none" stroke="#000" stroke-linecap="round" stroke-linejoin="round" stroke-width="2"/><line x1="233.48" y1="21.06" x2="228.8" y2="21.06" fill="none" stroke="#000" stroke-linecap="round" stroke-linejoin="round" stroke-width="2"/><line x1="233.48" y1="25.74" x2="231.14" y2="25.74" fill="none" stroke="#000" stroke-linecap="round" stroke-linejoin="round" stroke-width="2"/><line x1="233.48" y1="30.42" x2="228.8" y2="30.42" fill="none" stroke="#000" stroke-linecap="round" stroke-linejoin="round" stroke-width="2"/><line x1="233.48" y1="35.1" x2="231.14" y2="35.1" fill="none" stroke="#000" stroke-linecap="round" stroke-linejoin="round" stroke-width="2"/><path d="M301.16,43a1,1,0,0,0-1.36.43l-6.73,13.16a1,1,0,0,0,.44,1.36A1,1,0,0,0,294,58a1,1,0,0,0,.9-.55l6.73-13.16A1,1,0,0,0,301.16,43Z"/><path d="M308.2,42.48a1,1,0,0,0-1.42,0,1,1,0,0,0,0,1.42l6.42,6.42-6.42,6.41a1,1,0,0,0,0,1.42,1,1,0,0,0,.71.3,1,1,0,0,0,.71-.3L315.33,51a1,1,0,0,0,0-1.43Z"/><path d="M287.9,42.48a1,1,0,0,0-1.42,0l-7.13,7.13a1,1,0,0,0-.29.71,1,1,0,0,0,.29.71l7.13,7.13a1,1,0,0,0,.71.29,1,1,0,0,0,.71-1.72l-6.42-6.41,6.42-6.42A1,1,0,0,0,287.9,42.48Z"/><path d="M328.08,15.13H266.61a1,1,0,0,0-1,1V69.85a1,1,0,0,0,1,1h61.47a1,1,0,0,0,1-1V16.14A1,1,0,0,0,328.08,15.13Zm-1,2V29.78H267.61V17.14ZM267.61,68.85V31.79h59.46V68.85Z"/><path d="M272.93,24.14h4.62a1,1,0,0,0,0-2h-4.62a1,1,0,1,0,0,2Z"/><path d="M282.82,24.14h4.62a1,1,0,0,0,0-2h-4.62a1,1,0,0,0,0,2Z"/><path d="M380.81,15a19.08,19.08,0,1,0,19.08,19.08A19.09,19.09,0,0,0,380.81,15Zm0,36.08a17,17,0,1,1,17-17A17,17,0,0,1,380.81,51.11Z"/><path d="M353.93,41.36a1,1,0,0,0,1.32-.64v0a14.41,14.41,0,0,1,3.55-5.51,1,1,0,0,0,0-1.47,1,1,0,0,0-1.42,0A16.53,16.53,0,0,0,353.29,40a1,1,0,0,0,.62,1.34Z"/><path d="M355.78,54.74a1,1,0,0,0,.88-1.59,14.19,14.19,0,0,1-2.22-7.35,1,1,0,1,0-2.08.05,16.3,16.3,0,0,0,2.53,8.41A1.05,1.05,0,0,0,355.78,54.74Z"/><path d="M379,55.42a14.24,14.24,0,0,1-6.61,3.89,1,1,0,0,0,.53,2h0a16.33,16.33,0,0,0,7.57-4.46,1,1,0,0,0-1.45-1.49l0,0Z"/><path d="M367.28,59.72a14.28,14.28,0,0,1-7.14-2.78,1,1,0,0,0-1.25,1.67,16.42,16.42,0,0,0,8.18,3.2h.11a1.05,1.05,0,0,0,1.09-1,1,1,0,0,0-1-1.1Z"/><path d="M346.08,60.56a10,10,0,0,1-.31-2.56q0-.6.06-1.2a1,1,0,0,0-.92-1.16,1.06,1.06,0,0,0-1.16.93,13.56,13.56,0,0,0-.07,1.43,12.65,12.65,0,0,0,.38,3.07,1,1,0,0,0,1,.78,1,1,0,0,0,1.05-1,.75.75,0,0,0,0-.26Z"/><path d="M345.53,53.65a1.05,1.05,0,0,0,1.39-.45,10.62,10.62,0,0,1,2.31-3,1,1,0,0,0-1.38-1.54,12.38,12.38,0,0,0-2.78,3.57A1,1,0,0,0,345.53,53.65Z"/><path d="M364.07,64.92a10.46,10.46,0,0,1-3,2.33,1,1,0,0,0-.49,1.39,1,1,0,0,0,1.38.49.2.2,0,0,0,.08,0,12.43,12.43,0,0,0,3.55-2.77,1,1,0,1,0-1.56-1.39Z"/><path d="M350.32,66.63A10.23,10.23,0,0,1,347.64,64a1,1,0,0,0-1.71,1.2,12.76,12.76,0,0,0,3.21,3.18,1,1,0,0,0,1.23-1.68l-.05,0Z"/><path d="M357.52,68.38a10.57,10.57,0,0,1-3.76-.21,1,1,0,1,0-.49,2h0a12.39,12.39,0,0,0,4.5.26,1,1,0,0,0-.26-2.08Z"/><line x1="481.87" y1="52.06" x2="526.46" y2="52.06" fill="none" stroke="#000" stroke-linecap="round" stroke-linejoin="round" stroke-width="2"/><line x1="486.12" y1="41.62" x2="495.8" y2="51.65" fill="none" stroke="#000" stroke-linecap="round" stroke-linejoin="round" stroke-width="2"/><line x1="498.68" y1="42.09" x2="507.95" y2="51.7" fill="none" stroke="#000" stroke-linecap="round" stroke-linejoin="round" stroke-width="2"/><line x1="511.89" y1="41.72" x2="521.21" y2="51.65" fill="none" stroke="#000" stroke-linecap="round" stroke-linejoin="round" stroke-width="2"/><path d="M525,70.67h-42a1.51,1.51,0,0,1-1.51-1.5V41.39h45.05V69.17A1.5,1.5,0,0,1,525,70.67Z" fill="none" stroke="#000" stroke-linecap="round" stroke-linejoin="round" stroke-width="2"/><line x1="482.37" y1="29.68" x2="494.85" y2="35.89" fill="none" stroke="#000" stroke-linecap="round" stroke-linejoin="round" stroke-width="2"/><line x1="494.36" y1="25.92" x2="506.31" y2="31.87" fill="none" stroke="#000" stroke-linecap="round" stroke-linejoin="round" stroke-width="2"/><line x1="506.69" y1="21.15" x2="518.79" y2="27.4" fill="none" stroke="#000" stroke-linecap="round" stroke-linejoin="round" stroke-width="2"/><path d="M479,30.19,518.56,16a1.5,1.5,0,0,1,1.92.91l3.31,9.18-42.4,15.23-3.3-9.18A1.5,1.5,0,0,1,479,30.19Z" fill="none" stroke="#000" stroke-linecap="round" stroke-linejoin="round" stroke-width="2"/><rect x="415.63" y="23.53" width="43.2" height="43.2" fill="none" stroke="#000" stroke-linejoin="round" stroke-width="2"/><rect x="411.44" y="19.27" width="9.11" height="9.11" stroke-width="2" stroke="#000" stroke-linecap="round" stroke-linejoin="round" fill="#fff"/><rect x="411.44" y="62.28" width="9.11" height="9.11" stroke-width="2" stroke="#000" stroke-linecap="round" stroke-linejoin="round" fill="#fff"/><rect x="454.54" y="62.28" width="9.11" height="9.11" stroke-width="2" stroke="#000" stroke-linecap="round" stroke-linejoin="round" fill="#fff"/><rect x="454.19" y="19.27" width="9.11" height="9.11" stroke-width="2" stroke="#000" stroke-linecap="round" stroke-linejoin="round" fill="#fff"/><polygon points="437.33 31.67 441.58 40.26 451.06 41.64 444.2 48.33 445.82 57.78 437.33 53.32 428.85 57.78 430.47 48.33 423.61 41.64 433.09 40.26 437.33 31.67" fill="none" stroke="#231f20" stroke-linejoin="round" stroke-width="2"/><rect x="541.03" y="43.11" width="37.29" height="6.48" rx="1.17" stroke-width="2" stroke="#000" stroke-linecap="round" stroke-linejoin="round" fill="none"/><path d="M543.6,49.59l4,18.6a1.17,1.17,0,0,0,1.18,1h21.79a1.17,1.17,0,0,0,1.18-1l4-18.6" fill="none" stroke="#000" stroke-linecap="round" stroke-linejoin="round" stroke-width="2"/><path d="M544.9,34.66A7.4,7.4,0,1,0,555.37,24.2c-2.49-2.49-11.44-3.68-13.87-4a.5.5,0,0,0-.55.45.17.17,0,0,0,0,.1C541.23,23.22,542.41,32.17,544.9,34.66Z" fill="none" stroke="#000" stroke-linecap="round" stroke-linejoin="round" stroke-width="2"/><line x1="547.38" y1="26.84" x2="559.18" y2="38.64" fill="none" stroke="#000" stroke-linecap="round" stroke-linejoin="round" stroke-width="2"/><path d="M563.36,21.41a10,10,0,0,0,14.1,14.1c3.34-3.35,4.94-15.39,5.32-18.65a.67.67,0,0,0-.57-.76h-.16C578.75,16.47,566.71,18.07,563.36,21.41Z" fill="none" stroke="#000" stroke-linecap="round" stroke-linejoin="round" stroke-width="2"/><line x1="573.88" y1="24.75" x2="559.18" y2="38.64" fill="none" stroke="#000" stroke-linecap="round" stroke-linejoin="round" stroke-width="2"/><line x1="559.08" y1="41.4" x2="559.08" y2="37.88" fill="none" stroke="#000" stroke-linecap="round" stroke-linejoin="round" stroke-width="2"/><polygon points="621.45 19.69 589.32 36.82 621.45 53.96 653.57 36.82 621.45 19.69" fill="none" stroke="#000" stroke-linecap="round" stroke-linejoin="round" stroke-width="2"/><path d="M602.17,43.68V58.24C602.17,63,610.74,69,621.45,69s19.27-6,19.27-10.71V43.68" fill="none" stroke="#000" stroke-linecap="round" stroke-linejoin="round" stroke-width="2"/><line x1="653.57" y1="36.82" x2="653.57" y2="64.66" fill="none" stroke="#000" stroke-linecap="round" stroke-linejoin="round" stroke-width="2"/><path d="M118.7,15.24a130.29,130.29,0,0,0-16.81,3.87A109.59,109.59,0,0,0,85,25.59l-.71.35V59.48a8.92,8.92,0,0,0-3.86-.76C75,58.72,69.1,61.79,69,66.36a4.59,4.59,0,0,0,1.23,3.39,7.08,7.08,0,0,0,5.16,1.76h.1a15.72,15.72,0,0,0,7.41-1.9c2.59-1.46,4-3.51,4-5.77a5.17,5.17,0,0,0,0-.54V40.61a94.75,94.75,0,0,1,15.73-6.25,150.67,150.67,0,0,1,15-3.56V54.38a8.8,8.8,0,0,0-3.91-.77c-5.41,0-11.3,3.07-11.42,7.64a4.59,4.59,0,0,0,1.24,3.4,6.9,6.9,0,0,0,5.09,1.75h.11a15.79,15.79,0,0,0,7.42-1.9c2.6-1.46,4-3.51,4-5.78V15ZM81.62,67.39A13.2,13.2,0,0,1,75.45,69a5,5,0,0,1-3.4-1,2,2,0,0,1-.51-1.54c.08-3,4.76-5.15,8.95-5.15,3.84,0,3.84,1.73,3.84,2.56C84.33,65.59,82.63,66.81,81.62,67.39Zm20.27-35.48a94.75,94.75,0,0,0-15,5.84V27.54a111.13,111.13,0,0,1,15.73-6,148,148,0,0,1,15-3.56V28.2A147.81,147.81,0,0,0,101.89,31.91Zm13,30.36a13.25,13.25,0,0,1-6.19,1.57,4.84,4.84,0,0,1-3.33-1,2,2,0,0,1-.52-1.55c.08-3,4.74-5.16,8.91-5.16,3.86,0,3.86,1.8,3.86,2.56C117.59,60.47,115.88,61.7,114.86,62.27Z"/><path d="M61.34,57.34A27.42,27.42,0,0,0,66,41.9,27.93,27.93,0,1,0,60.93,58l.14-.13A1.65,1.65,0,0,0,61.34,57.34ZM64,41.9A26,26,0,0,1,62.7,50c.07-2.58-.34-5.17-1.5-6.6a4.1,4.1,0,0,0-4-1.29c-1.7.14-3.33.27-5.24-3.74-1.5-3.2-.07-4.42,2.38-6,1.77-1.16,4.08-2.79,2.45-5.72C55.28,23.94,53,24,51.2,24a5.61,5.61,0,0,1-3.2-.62c-1.49-.95-2.65-3-3.8-4.89-.41-.69-.82-1.37-1.16-2A26,26,0,0,1,64,41.9ZM30.93,17.07l.07.06c1.56,1.3,5.44,5.31,5,8.71C35.9,27,33.58,28,31.61,28.9c-2.79,1.23-6,2.66-6.6,5.45-.41,1.83.41,3.87,2.59,6.32a23.26,23.26,0,0,0,12,7.76c2.24.68,3.74,1.16,4.76,3.13,1.29,2.38.34,3.33-2.24,5.58-2.39,2.11-5.65,5-6.06,10.61a25.38,25.38,0,0,1-5-.88c.28-8.17-3.19-10.82-5.78-12.79a9.1,9.1,0,0,1-2-1.84c-.34-.55.41-1.84,1.09-3,1-1.77,2.17-3.81,1.43-5.79C25.28,42,23.92,41,21.61,40.2c-7.76-2.59-6.74-9.53-6.67-9.8v-.07A26.5,26.5,0,0,1,30.93,17.07ZM12.29,41.9a26.46,26.46,0,0,1,1.09-7.42c.75,2.72,2.72,6,7.68,7.62,1.71.55,2.73,1.23,3,2,.41,1.09-.48,2.59-1.29,4.09-1,1.7-2.05,3.53-1.09,5.1a9,9,0,0,0,2.45,2.38c2.24,1.7,5,3.81,5,10.48A26.07,26.07,0,0,1,12.29,41.9ZM38.14,67.75h0c.34-4.76,3-7.08,5.31-9.18s4.76-4.22,2.65-8.1c-1.5-2.72-3.54-3.33-6-4.08-2.85-.89-6.46-2-11-7.15-1.63-1.83-2.38-3.4-2.11-4.55.41-1.77,3.06-2.93,5.45-4,2.72-1.22,5.37-2.38,5.64-4.62.48-3.95-3-7.9-4.76-9.6A28.54,28.54,0,0,1,38.14,16c.75,0,1.5.07,2.18.07.07.06.07.13.13.13a23.4,23.4,0,0,1,2.18,3.2c1.16,2,2.52,4.35,4.42,5.58a6.66,6.66,0,0,0,4.29.88c1.9,0,2.92.07,3.74,1.57.68,1.15.2,1.63-1.84,3.06s-5.37,3.67-3.13,8.64c2.45,5.31,5.17,5.1,7.22,4.9,1.15-.07,1.7-.14,2.24.54,1.77,2.31,1,9.59.14,11.63A26,26,0,0,1,38.14,67.75Z"/><path d="M691.15,64.83V25.22a5.56,5.56,0,0,0-5.66-5.66H664.74V59.17h20.75a5.56,5.56,0,0,1,5.66,5.66h0" fill="none" stroke="#000" stroke-linecap="round" stroke-linejoin="round" stroke-width="2"/><path d="M691.15,64.83V25.22a5.56,5.56,0,0,1,5.66-5.66h20.75V59.17H696.81a5.56,5.56,0,0,0-5.66,5.66h0" fill="none" stroke="#000" stroke-linecap="round" stroke-linejoin="round" stroke-width="2"/><polyline points="664.74 59.17 664.74 66.71 691.15 66.71" fill="none" stroke="#000" stroke-linecap="round" stroke-linejoin="round" stroke-width="2"/><polyline points="717.56 59.17 717.56 66.71 691.15 66.71" fill="none" stroke="#000" stroke-linecap="round" stroke-linejoin="round" stroke-width="2"/><path d="M776.64,18.63V64.09H731.18V18.63h45.46m2.56-2.56H728.61V66.66H779.2V16.07Z"/><path d="M752.31,52.59l-2.84-7.26H740.3l-2.81,7.26H734.8l9-23h2.23l9,23Zm-3.68-9.66L746,35.85c-.35-.9-.7-2-1.07-3.3a31.48,31.48,0,0,1-1,3.3l-2.69,7.08Z"/><path d="M765.05,52.91a7.86,7.86,0,0,1-6-2.31,9,9,0,0,1-2.2-6.43,9.94,9.94,0,0,1,2-6.58,6.79,6.79,0,0,1,5.49-2.44,6.43,6.43,0,0,1,5.09,2.12,8.11,8.11,0,0,1,1.88,5.59V44.5H759.54a6.8,6.8,0,0,0,1.53,4.58,5.28,5.28,0,0,0,4.07,1.56,13.62,13.62,0,0,0,5.47-1.16v2.31a13.53,13.53,0,0,1-2.6.85A14,14,0,0,1,765.05,52.91Zm-.7-15.59a4.22,4.22,0,0,0-3.29,1.35,6.18,6.18,0,0,0-1.45,3.72h9a5.7,5.7,0,0,0-1.1-3.76A3.82,3.82,0,0,0,764.35,37.32Z"/></svg>