<svg xmlns="http://www.w3.org/2000/svg" width="423.63" height="122.03" viewBox="0 0 423.63 122.03"><path d="M42.89,16.63C56,17.61,66.4,26.72,66.4,40.15" fill="none" stroke="#000" stroke-linecap="round" stroke-linejoin="round" stroke-width="2"/><path d="M14.67,39.86c0-13.48,10.45-22.35,23.64-23.24" fill="none" stroke="#000" stroke-linecap="round" stroke-linejoin="round" stroke-width="2"/><rect x="12.52" y="40.25" width="4.31" height="4.31" stroke-width="2" stroke="#000" stroke-linecap="round" stroke-linejoin="round" fill="none"/><rect x="64.25" y="40.25" width="4.31" height="4.31" stroke-width="2" stroke="#000" stroke-linecap="round" stroke-linejoin="round" fill="none"/><rect x="38.38" y="14.39" width="4.31" height="4.31" stroke-width="2" stroke="#000" stroke-linecap="round" stroke-linejoin="round" fill="none"/><circle cx="14.67" cy="16.54" r="2.16" fill="none" stroke="#000" stroke-linecap="round" stroke-linejoin="round" stroke-width="2"/><circle cx="66.4" cy="16.54" r="2.16" fill="none" stroke="#000" stroke-linecap="round" stroke-linejoin="round" stroke-width="2"/><line x1="42.9" y1="16.54" x2="64.25" y2="16.54" fill="none" stroke="#000" stroke-linecap="round" stroke-linejoin="round" stroke-width="2"/><line x1="16.83" y1="16.54" x2="38.1" y2="16.54" fill="none" stroke="#000" stroke-linecap="round" stroke-linejoin="round" stroke-width="2"/><path d="M40.54,27.32,27.61,47.15A32.52,32.52,0,0,1,34.93,61.8H46.14a31.35,31.35,0,0,1,7.33-14.65Z" fill="none" stroke="#000" stroke-linecap="round" stroke-linejoin="round" stroke-width="2"/><line x1="40.54" y1="42.41" x2="40.54" y2="27.97" fill="none" stroke="#000" stroke-linecap="round" stroke-linejoin="round" stroke-width="2"/><circle cx="40.54" cy="46.72" r="4.31" fill="none" stroke="#000" stroke-linecap="round" stroke-linejoin="round" stroke-width="2"/><rect x="34.07" y="61.8" width="12.93" height="6.47" stroke-width="2" stroke="#000" stroke-linecap="round" stroke-linejoin="round" fill="none"/><path d="M122.46,44.46h2.34a7,7,0,0,1,0,14h-2.34" fill="none" stroke="#000" stroke-linecap="round" stroke-linejoin="round" stroke-width="2"/><path d="M122.46,65.52a4.68,4.68,0,0,1-4.68,4.68H96.72A4.67,4.67,0,0,1,92,65.52V41a1.17,1.17,0,0,1,1.17-1.17h28.08A1.18,1.18,0,0,1,122.46,41Z" fill="none" stroke="#000" stroke-linecap="round" stroke-linejoin="round" stroke-width="2"/><path d="M122.18,16.53c2.42,3.68-1.17,5.7-2,7.68A3.62,3.62,0,0,0,121.89,29a2.75,2.75,0,0,0,.36.15C129,32.06,131.06,18.68,122.18,16.53Z" fill="none" stroke="#000" stroke-linecap="round" stroke-linejoin="round" stroke-width="2"/><line x1="115.44" y1="39.78" x2="121.54" y2="28.81" fill="none" stroke="#000" stroke-linecap="round" stroke-linejoin="round" stroke-width="2"/><line x1="123.96" y1="29.62" x2="120.12" y2="39.78" fill="none" stroke="#000" stroke-linecap="round" stroke-linejoin="round" stroke-width="2"/><polygon points="101.4 39.78 94.38 39.78 90.87 32.76 89.7 25.74 95.55 29.25 101.4 39.78" fill="none" stroke="#000" stroke-linecap="round" stroke-linejoin="round" stroke-width="2"/><line x1="90.87" y1="32.76" x2="95.55" y2="29.25" fill="none" stroke="#000" stroke-linecap="round" stroke-linejoin="round" stroke-width="2"/><path d="M113.1,17.55a1.17,1.17,0,0,0-1.17-1.17h-7a1.17,1.17,0,0,0-1.17,1.17V39.78h9.36Z" fill="none" stroke="#000" stroke-linecap="round" stroke-linejoin="round" stroke-width="2"/><line x1="113.1" y1="21.06" x2="108.42" y2="21.06" fill="none" stroke="#000" stroke-linecap="round" stroke-linejoin="round" stroke-width="2"/><line x1="113.1" y1="25.74" x2="110.76" y2="25.74" fill="none" stroke="#000" stroke-linecap="round" stroke-linejoin="round" stroke-width="2"/><line x1="113.1" y1="30.42" x2="108.42" y2="30.42" fill="none" stroke="#000" stroke-linecap="round" stroke-linejoin="round" stroke-width="2"/><line x1="113.1" y1="35.1" x2="110.76" y2="35.1" fill="none" stroke="#000" stroke-linecap="round" stroke-linejoin="round" stroke-width="2"/><path d="M180.78,43a1,1,0,0,0-1.35.43l-6.74,13.16a1,1,0,0,0,.44,1.36,1.07,1.07,0,0,0,.46.11,1,1,0,0,0,.89-.55l6.73-13.16A1,1,0,0,0,180.78,43Z"/><path d="M187.82,42.48a1,1,0,0,0-1.42,0,1,1,0,0,0,0,1.42l6.42,6.42-6.42,6.41a1,1,0,0,0,.71,1.72,1,1,0,0,0,.71-.3L195,51a1,1,0,0,0,0-1.43Z"/><path d="M167.52,42.48a1,1,0,0,0-1.42,0L159,49.61a1,1,0,0,0-.29.71A1,1,0,0,0,159,51l7.13,7.13a1,1,0,0,0,1.43,0,1,1,0,0,0,0-1.43l-6.42-6.41,6.42-6.42A1,1,0,0,0,167.52,42.48Z"/><path d="M207.7,15.13H146.23a1,1,0,0,0-1,1V69.85a1,1,0,0,0,1,1H207.7a1,1,0,0,0,1-1V16.14A1,1,0,0,0,207.7,15.13Zm-1,2V29.78H147.23V17.14ZM147.23,68.85V31.79H206.7V68.85Z"/><path d="M152.55,24.14h4.62a1,1,0,0,0,0-2h-4.62a1,1,0,0,0,0,2Z"/><path d="M162.44,24.14h4.62a1,1,0,0,0,0-2h-4.62a1,1,0,0,0,0,2Z"/><path d="M260.43,15a19.08,19.08,0,1,0,19.08,19.08A19.08,19.08,0,0,0,260.43,15Zm0,36.08a17,17,0,1,1,17-17A17,17,0,0,1,260.43,51.11Z"/><path d="M233.55,41.36a1,1,0,0,0,1.32-.64v0a14.41,14.41,0,0,1,3.55-5.51,1,1,0,0,0-1.44-1.5A16.39,16.39,0,0,0,232.92,40a1,1,0,0,0,.61,1.34Z"/><path d="M235.4,54.74a1,1,0,0,0,1-1,1,1,0,0,0-.16-.55,14.29,14.29,0,0,1-2.22-7.35,1,1,0,1,0-2.08.05,16.39,16.39,0,0,0,2.53,8.41A1.05,1.05,0,0,0,235.4,54.74Z"/><path d="M258.64,55.42A14.24,14.24,0,0,1,252,59.31a1,1,0,0,0,.54,2h0a16.38,16.38,0,0,0,7.57-4.46,1,1,0,0,0-1.46-1.49l0,0Z"/><path d="M246.9,59.72a14.28,14.28,0,0,1-7.14-2.78,1,1,0,0,0-1.24,1.67,16.35,16.35,0,0,0,8.18,3.2h.1a1.05,1.05,0,0,0,1.09-1,1,1,0,0,0-1-1.1Z"/><path d="M225.7,60.56a10.43,10.43,0,0,1-.31-2.56,9.66,9.66,0,0,1,.07-1.2,1.05,1.05,0,0,0-2.09-.23,11.32,11.32,0,0,0-.06,1.43,12.17,12.17,0,0,0,.37,3.07,1,1,0,0,0,2.06-.25,1.09,1.09,0,0,0,0-.26Z"/><path d="M225.15,53.65a1.05,1.05,0,0,0,1.39-.45,10.47,10.47,0,0,1,2.32-3,1,1,0,0,0-1.39-1.54,12.38,12.38,0,0,0-2.78,3.57A1.05,1.05,0,0,0,225.15,53.65Z"/><path d="M243.69,64.92a10.41,10.41,0,0,1-2.95,2.33,1,1,0,1,0,.89,1.88l.08,0a12.39,12.39,0,0,0,3.54-2.77,1,1,0,1,0-1.56-1.39Z"/><path d="M229.94,66.63A10.39,10.39,0,0,1,227.26,64a1,1,0,0,0-1.71,1.2,12.76,12.76,0,0,0,3.21,3.18,1,1,0,0,0,1.45-.23,1,1,0,0,0-.22-1.45l-.05,0Z"/><path d="M237.14,68.38a10.57,10.57,0,0,1-3.76-.21,1,1,0,1,0-.49,2h0a12.4,12.4,0,0,0,4.5.26,1,1,0,0,0-.26-2.08Z"/><line x1="361.49" y1="52.06" x2="406.08" y2="52.06" fill="none" stroke="#000" stroke-linecap="round" stroke-linejoin="round" stroke-width="2"/><line x1="365.74" y1="41.62" x2="375.43" y2="51.65" fill="none" stroke="#000" stroke-linecap="round" stroke-linejoin="round" stroke-width="2"/><line x1="378.3" y1="42.09" x2="387.57" y2="51.7" fill="none" stroke="#000" stroke-linecap="round" stroke-linejoin="round" stroke-width="2"/><line x1="391.51" y1="41.72" x2="400.83" y2="51.65" fill="none" stroke="#000" stroke-linecap="round" stroke-linejoin="round" stroke-width="2"/><path d="M404.58,70.67h-42a1.5,1.5,0,0,1-1.5-1.5V41.39h45V69.17A1.5,1.5,0,0,1,404.58,70.67Z" fill="none" stroke="#000" stroke-linecap="round" stroke-linejoin="round" stroke-width="2"/><line x1="361.99" y1="29.68" x2="374.47" y2="35.89" fill="none" stroke="#000" stroke-linecap="round" stroke-linejoin="round" stroke-width="2"/><line x1="373.99" y1="25.92" x2="385.93" y2="31.87" fill="none" stroke="#000" stroke-linecap="round" stroke-linejoin="round" stroke-width="2"/><line x1="386.31" y1="21.15" x2="398.41" y2="27.4" fill="none" stroke="#000" stroke-linecap="round" stroke-linejoin="round" stroke-width="2"/><path d="M358.61,30.19,398.18,16a1.5,1.5,0,0,1,1.92.91l3.31,9.18L361,41.29l-3.3-9.18A1.51,1.51,0,0,1,358.61,30.19Z" fill="none" stroke="#000" stroke-linecap="round" stroke-linejoin="round" stroke-width="2"/><rect x="295.25" y="23.53" width="43.2" height="43.2" fill="none" stroke="#000" stroke-linejoin="round" stroke-width="2"/><rect x="291.07" y="19.27" width="9.11" height="9.11" stroke-width="2" stroke="#000" stroke-linecap="round" stroke-linejoin="round" fill="#fff"/><rect x="291.07" y="62.28" width="9.11" height="9.11" stroke-width="2" stroke="#000" stroke-linecap="round" stroke-linejoin="round" fill="#fff"/><rect x="334.16" y="62.28" width="9.11" height="9.11" stroke-width="2" stroke="#000" stroke-linecap="round" stroke-linejoin="round" fill="#fff"/><rect x="333.82" y="19.27" width="9.11" height="9.11" stroke-width="2" stroke="#000" stroke-linecap="round" stroke-linejoin="round" fill="#fff"/><polygon points="316.96 31.67 321.2 40.26 330.68 41.64 323.82 48.33 325.44 57.78 316.96 53.32 308.47 57.78 310.09 48.33 303.23 41.64 312.71 40.26 316.96 31.67" fill="none" stroke="#231f20" stroke-linejoin="round" stroke-width="2"/><text transform="translate(22.45 91.08)" font-size="13" font-family="Helvetica"><tspan letter-spacing="-0.05em">V</tspan><tspan x="7.96" y="0">ektor</tspan><tspan x="-1.8" y="15.6">Design</tspan></text><text transform="translate(85.93 90.79)" font-size="13" font-family="Helvetica">Digitale<tspan x="-7.95" y="15.6">Illustration</tspan></text><text transform="translate(163.37 91.08)" font-size="13" font-family="Helvetica"><tspan letter-spacing="-0.02em">W</tspan><tspan x="12.04" y="0">eb</tspan><tspan x="-6.98" y="15.6">Design</tspan></text><text transform="translate(217.09 91.22)" font-size="13" font-family="Helvetica">Animation<tspan x="-12.64" y="15.6">Motion Design</tspan></text><path d="M299.81,82.76h1.26V91h4.68v1.11h-5.94Z"/><path d="M311.81,86a3.42,3.42,0,0,1,.9,2.57,4.42,4.42,0,0,1-.79,2.71,2.85,2.85,0,0,1-2.46,1.08,2.8,2.8,0,0,1-2.22-1,3.79,3.79,0,0,1-.82-2.55,4.07,4.07,0,0,1,.87-2.73,2.9,2.9,0,0,1,2.32-1A3,3,0,0,1,311.81,86Zm-.71,4.51a4.28,4.28,0,0,0,.42-1.91,3.48,3.48,0,0,0-.3-1.55,1.7,1.7,0,0,0-1.64-.93,1.62,1.62,0,0,0-1.51.79,3.81,3.81,0,0,0-.47,1.93,3.27,3.27,0,0,0,.47,1.81,1.65,1.65,0,0,0,1.49.72A1.54,1.54,0,0,0,311.1,90.48Z"/><path d="M317.9,85.56a3.06,3.06,0,0,1,.65.65v-.86h1.06v6.18a4.63,4.63,0,0,1-.38,2A2.73,2.73,0,0,1,316.55,95a3.26,3.26,0,0,1-1.84-.49,1.91,1.91,0,0,1-.83-1.54H315a1.21,1.21,0,0,0,.33.7,1.63,1.63,0,0,0,1.21.38,1.66,1.66,0,0,0,1.71-.92,5.35,5.35,0,0,0,.22-2,2.22,2.22,0,0,1-.82.77,2.73,2.73,0,0,1-1.27.26,2.68,2.68,0,0,1-1.93-.79,3.44,3.44,0,0,1-.82-2.59,3.92,3.92,0,0,1,.83-2.67,2.58,2.58,0,0,1,2-1A2.49,2.49,0,0,1,317.9,85.56Zm.14,1.22a1.69,1.69,0,0,0-1.32-.61,1.63,1.63,0,0,0-1.64,1.13,4.4,4.4,0,0,0-.24,1.59,2.8,2.8,0,0,0,.47,1.74,1.47,1.47,0,0,0,1.24.6,1.76,1.76,0,0,0,1.73-1.11,3.66,3.66,0,0,0,.27-1.46A2.89,2.89,0,0,0,318,86.78Z"/><path d="M326.27,86a3.42,3.42,0,0,1,.9,2.57,4.42,4.42,0,0,1-.79,2.71,2.85,2.85,0,0,1-2.46,1.08,2.8,2.8,0,0,1-2.22-1,3.79,3.79,0,0,1-.82-2.55,4.07,4.07,0,0,1,.87-2.73,2.9,2.9,0,0,1,2.32-1A3,3,0,0,1,326.27,86Zm-.71,4.51a4.28,4.28,0,0,0,.42-1.91,3.48,3.48,0,0,0-.3-1.55,1.7,1.7,0,0,0-1.64-.93,1.62,1.62,0,0,0-1.51.79,3.81,3.81,0,0,0-.47,1.93,3.27,3.27,0,0,0,.47,1.81,1.65,1.65,0,0,0,1.49.72A1.54,1.54,0,0,0,325.56,90.48Z"/><path d="M333.23,85.76a2.16,2.16,0,0,1-.2-.9,2,2,0,0,1,.6-1.49,2.23,2.23,0,0,1,1.63-.6,2,2,0,0,1,1.51.55,1.8,1.8,0,0,1,.55,1.32,2.4,2.4,0,0,1-.56,1.57,5.42,5.42,0,0,1-1.1.91l1.69,2c.11-.34.19-.59.23-.76a6.06,6.06,0,0,0,.14-.7h1.08a6.68,6.68,0,0,1-.43,1.72c-.21.55-.32.77-.32.66l1.65,2h-1.47L337.36,91a4.4,4.4,0,0,1-.95.82,3.22,3.22,0,0,1-1.73.46,2.61,2.61,0,0,1-2.11-.78,2.75,2.75,0,0,1-.65-1.77,2.52,2.52,0,0,1,.64-1.77A6.62,6.62,0,0,1,334,86.9,4.44,4.44,0,0,1,333.23,85.76ZM336,91a2.48,2.48,0,0,0,.78-.72l-2.1-2.57a6.67,6.67,0,0,0-1.16.91,1.71,1.71,0,0,0-.42,1.17,1.34,1.34,0,0,0,.54,1.14,2,2,0,0,0,1.16.4A2.16,2.16,0,0,0,336,91Zm-.09-5.28a1.43,1.43,0,0,0,.37-1A1,1,0,0,0,336,84a.93.93,0,0,0-.73-.3,1,1,0,0,0-1,.47,1,1,0,0,0-.14.53,1.43,1.43,0,0,0,.21.74,6.8,6.8,0,0,0,.71.92A4.41,4.41,0,0,0,335.88,85.69Z"/><path d="M294.36,98.36h4a2.7,2.7,0,0,1,2.35,1,2.26,2.26,0,0,1,.41,1.33,2.13,2.13,0,0,1-.5,1.45,2.5,2.5,0,0,1-.75.54,3.39,3.39,0,0,1,1.07.62,2.24,2.24,0,0,1,.63,1.68,2.57,2.57,0,0,1-.57,1.63,3.21,3.21,0,0,1-2.7,1.09h-4Zm3.56,3.94a2.88,2.88,0,0,0,1.26-.22,1.27,1.27,0,0,0,.7-1.26,1.21,1.21,0,0,0-.75-1.23,3.34,3.34,0,0,0-1.25-.18H295.6v2.89Zm.43,4.31a1.94,1.94,0,0,0,1.67-.68,1.66,1.66,0,0,0,.31-1,1.37,1.37,0,0,0-.91-1.38,3.56,3.56,0,0,0-1.29-.2H295.6v3.29Z"/><path d="M302.94,100.89H304v1.17a2.58,2.58,0,0,1,.65-.83,1.71,1.71,0,0,1,1.2-.5H306l.26,0V102l-.19,0h-.18a1.64,1.64,0,0,0-1.33.56,1.91,1.91,0,0,0-.46,1.27v3.91h-1.15Z"/><path d="M310.88,103.57a.6.6,0,0,0,.53-.33,1,1,0,0,0,.08-.44.93.93,0,0,0-.42-.85,2.17,2.17,0,0,0-1.19-.26,1.5,1.5,0,0,0-1.26.48,1.7,1.7,0,0,0-.28.8h-1.06a2,2,0,0,1,.81-1.76,3.44,3.44,0,0,1,1.82-.49,3.66,3.66,0,0,1,1.95.46,1.55,1.55,0,0,1,.74,1.42v3.92a.47.47,0,0,0,.07.28.36.36,0,0,0,.31.11h.17l.2,0v.85a2.55,2.55,0,0,1-.4.09l-.38,0a.94.94,0,0,1-.86-.42,1.73,1.73,0,0,1-.2-.63,2.85,2.85,0,0,1-1,.8,3.17,3.17,0,0,1-1.44.33,2.16,2.16,0,0,1-1.55-.57,1.9,1.9,0,0,1-.6-1.44,1.85,1.85,0,0,1,.59-1.46,2.8,2.8,0,0,1,1.55-.64Zm-2.4,3.09a1.35,1.35,0,0,0,.86.28,2.51,2.51,0,0,0,1.16-.28,1.56,1.56,0,0,0,1-1.51v-.92a2,2,0,0,1-.54.22,5.34,5.34,0,0,1-.65.13l-.69.09a2.54,2.54,0,0,0-.93.26,1,1,0,0,0-.53.95A.94.94,0,0,0,308.48,106.66Z"/><path d="M314.47,100.89h1.09v1a3.08,3.08,0,0,1,1-.86,2.78,2.78,0,0,1,1.2-.26,2,2,0,0,1,2,1,3.55,3.55,0,0,1,.28,1.58v4.36h-1.16V103.4a2.35,2.35,0,0,0-.18-1,1.13,1.13,0,0,0-1.11-.64,2.37,2.37,0,0,0-.66.08,1.85,1.85,0,0,0-1.2,1.26,4.44,4.44,0,0,0-.09,1v3.56h-1.14Z"/><path d="M325.44,101.1a2.92,2.92,0,0,1,.68.66V98.33h1.1v9.35h-1v-.94a2.47,2.47,0,0,1-.94.91,2.76,2.76,0,0,1-1.24.28,2.5,2.5,0,0,1-2-1,3.7,3.7,0,0,1-.83-2.54,4.45,4.45,0,0,1,.75-2.58,2.49,2.49,0,0,1,2.16-1.08A2.43,2.43,0,0,1,325.44,101.1Zm-2.56,5.09a1.63,1.63,0,0,0,1.48.74,1.56,1.56,0,0,0,1.3-.68,3.24,3.24,0,0,0,.51-2,2.9,2.9,0,0,0-.53-1.91,1.62,1.62,0,0,0-1.29-.62,1.7,1.7,0,0,0-1.39.66,3,3,0,0,0-.54,1.94A3.45,3.45,0,0,0,322.88,106.19Z"/><path d="M328.93,98.36h1.16v1.29h-1.16Zm0,2.56h1.16v6.76h-1.16Z"/><path d="M331.82,100.89h1.08v1a3.21,3.21,0,0,1,1-.86,2.78,2.78,0,0,1,1.2-.26,2,2,0,0,1,1.95,1,3.55,3.55,0,0,1,.28,1.58v4.36H336.2V103.4a2.2,2.2,0,0,0-.19-1,1.1,1.1,0,0,0-1.1-.64,2.51,2.51,0,0,0-.67.08,1.73,1.73,0,0,0-.82.56,1.65,1.65,0,0,0-.37.7,4.44,4.44,0,0,0-.09,1v3.56h-1.14Z"/><path d="M342.83,101.16a3.33,3.33,0,0,1,.66.65V101h1.05v6.18a4.63,4.63,0,0,1-.38,2.05,2.72,2.72,0,0,1-2.68,1.38,3.26,3.26,0,0,1-1.84-.49,1.91,1.91,0,0,1-.83-1.54H340a1.21,1.21,0,0,0,.33.7,1.63,1.63,0,0,0,1.21.38,1.66,1.66,0,0,0,1.71-.92,5.35,5.35,0,0,0,.22-2,2.22,2.22,0,0,1-.82.77,2.91,2.91,0,0,1-3.2-.53,3.44,3.44,0,0,1-.82-2.59,4,4,0,0,1,.83-2.67,2.58,2.58,0,0,1,2-1A2.49,2.49,0,0,1,342.83,101.16Zm.14,1.22a1.68,1.68,0,0,0-1.32-.6A1.62,1.62,0,0,0,340,102.9a4.4,4.4,0,0,0-.24,1.59,2.8,2.8,0,0,0,.47,1.74,1.49,1.49,0,0,0,1.24.6,1.75,1.75,0,0,0,1.73-1.11,3.65,3.65,0,0,0,.28-1.46A2.89,2.89,0,0,0,343,102.38Z"/><text transform="translate(367.36 91.08)" font-size="13" font-family="Helvetica"><tspan letter-spacing="-0.02em">V</tspan><tspan x="8.44" y="0">ideo</tspan><tspan x="-13.84" y="15.6">produktion</tspan></text></svg>