<svg xmlns="http://www.w3.org/2000/svg" width="485.78mm" height="210mm" viewBox="0 0 1377.03 595.28"><path d="M241.59,534.19h-.25a3.37,3.37,0,0,1-3.4-3.61l13.54-135.26,11.82,1.06-19.45,136A2.18,2.18,0,0,1,241.59,534.19Z" fill="#b1c1e5"/><path d="M372,534.19h.25a3.38,3.38,0,0,0,3.41-3.61L362.12,395.32l-11.82,1.06,19.45,136A2.18,2.18,0,0,0,372,534.19Z" fill="#b1c1e5"/><path d="M146,534.19h-.25a3.38,3.38,0,0,1-3.4-3.61l13.54-135.26,11.82,1.06-19.45,136A2.18,2.18,0,0,1,146,534.19Z" fill="#b1c1e5"/><path d="M368,375.65l24-118.72c3.09-16.08-10.23-30.77-27.53-30.38l-46.36,1.06a36.63,36.63,0,0,0-34.35,26.44L248.6,375.65Z" fill="#d3def3"/><path d="M353.43,375.65l24-118.72c3.08-16.08-10.24-30.77-27.53-30.38l-46.37,1.06a36.62,36.62,0,0,0-34.34,26.44l-35.17,121.6Z" fill="#b1c1e5"/><path d="M182,375.65H368a0,0,0,0,1,0,0v10.83a10.83,10.83,0,0,1-10.83,10.83H182a10.83,10.83,0,0,1-10.83-10.83v0A10.83,10.83,0,0,1,182,375.65Z" fill="#d3def3"/><rect x="152.85" y="375.65" width="127.73" height="21.65" rx="10.83" fill="#b1c1e5"/><path d="M197.14,169.71l-4.29-25.54s-7.5-9.74-4.26,9.19c0,0-2.9,5.28-8.68-3.29-1.32-2-6.25-13.4-8.36-13.56-3-.23-12.21,3.07-8.21,15.73,0,0,4.33,14.44,23.26,19.61Z" fill="#f7b290"/><path d="M201.87,235.48c-7.49-22.3-19.17-64.8-19.17-64.8a25.53,25.53,0,0,0,14-5.33s13,36.62,17,45.27c2.87,6.23,9.27,21.17,12.62,29l-5.4,3.1A13.2,13.2,0,0,1,201.87,235.48Z" fill="#ab465f"/><path d="M210,238.28c2.3,2.9,3,7.86,5.63,5.3h0a15.16,15.16,0,0,0,9.58-2.91c10.05-7.38,30.21-20,42.78-37.61,7.23-10.11,1.57-24.79.53-41.4,0,0-24.71,15.44-61.44,67.58h0a4.84,4.84,0,0,0-1.27,7.13Z" fill="#ab465f"/><path d="M346.07,354.49c-.31,1.22,2.19,14.49-3.64,19.45s-15-12.13-15-12.13l18.62-7.32" fill="#2d2d2d"/><path d="M162.46,374.46,173.07,497.3l17.92-.06c4-47.9,10.53-89.89,2.87-122.89,0,0-3.29-1.92-16-1.92a61,61,0,0,0-15.4,2" fill="#2d2d2d"/><path d="M180.73,387c28.11-6.78,109-15.23,109-15.23-2.48-14.25-32-52.62-32-52.62-30.64,8.53-92.15,40.33-92.15,40.33S158.28,369,164,379.38C170.67,391.65,180.73,387,180.73,387Z" fill="#2d2d2d"/><path d="M131.54,534.53l58.63-.21a5.43,5.43,0,0,0,5.39-5.86l-2.49-30.79a33.67,33.67,0,0,0-5.86-1.91,5.93,5.93,0,0,1-4.36-3.93c0-.14-.08-.3-.12-.45-1.37-5.92-9.92-7.77-11.48-2-.2.75-.38,1.48-.52,2.18,0,.18-.08.35-.11.52-.25,1.25-.43,2.39-.55,3.4a.13.13,0,0,0,0,.06,33.48,33.48,0,0,0-.28,4.19c-.77,1-1.52,2-2.24,2.91l-1.08,1.42c-.77,1-1.51,2-2.25,2.92-.33.44-.67.87-1,1.29-.81,1-1.61,2-2.41,2.89-.36.41-.72.81-1.09,1.2-3,3.19-6,5.37-9.65,5.88-6.36.9-16.74,1.63-21.72,11a3.06,3.06,0,0,0-.25.6A3.62,3.62,0,0,0,131.54,534.53Z" fill="#a5a7a7"/><path d="M131.54,534.52l58.63-.2a5.43,5.43,0,0,0,5.36-4.72l-67.45.23A3.61,3.61,0,0,0,131.54,534.52Z" fill="#2d2d2d"/><path d="M166.46,504.08c.68,1,2.07,2.2,4.87,3.3.47.19,1,.38,1.55.56l.5-1.53c-.55-.18-1.06-.36-1.51-.54-3.21-1.29-4.09-2.55-4.33-3.21Z" fill="#fff"/><path d="M163.2,508.29a11.44,11.44,0,0,0,4,2.52c.56.24,1.18.46,1.86.68l.5-1.53q-.95-.31-1.71-.63a9.24,9.24,0,0,1-3.66-2.33C163.88,507.44,163.54,507.87,163.2,508.29Z" fill="#fff"/><path d="M159.7,512.38a11.63,11.63,0,0,0,3.9,2.4c.57.24,1.19.48,1.89.7l.49-1.54c-.64-.2-1.21-.42-1.72-.63a10,10,0,0,1-3.47-2.13C160.43,511.59,160.07,512,159.7,512.38Z" fill="#fff"/><path d="M170.07,495.5a41.28,41.28,0,0,1,5.22.27l0-2.93a13.18,13.18,0,0,0-4.63-.74C170.37,493.35,170.19,494.49,170.07,495.5Z" fill="#fff"/><path d="M243.37,397.66c4.65,39.75,9.85,89.63,15.54,122.83l17.95-.06L279,397.54s-4.76-5.5-19.59-5.5c-8.48,0-16,5.62-16,5.62" fill="#2d2d2d"/><path d="M243.87,389.25C289.36,352.76,321.58,330,321.58,330l20.85,43.93c-30.36,29.44-80.12,43.63-80.12,43.63s-9.58-1.37-16.05-11.82C240.46,396.38,243.87,389.25,243.87,389.25Z" fill="#2d2d2d"/><path d="M243.27,555.07c.56,10.33,32.84,6.66,38,3.54,2-1.21,2.81-3.52,3-6.31.24-4.46-1.25-10.16-2.54-14.62-2.09-7.27-1.8-7.14-3.26-12.11,0,0,.35-8.09-10.25-11.14s-14.4,17.1-16.19,21c-1.64,3.56-8.06,8.43-8.69,17.17A20.54,20.54,0,0,0,243.27,555.07Z" fill="#a5a7a7"/><path d="M274,532.13l.84-1.31c-.39-.25-9.75-6.21-17.87-2.61l.63,1.41C265,526.37,273.9,532.07,274,532.13Z" fill="#fff"/><path d="M273.1,541.12l.84-1.3c-.39-.26-9.75-6.21-17.87-2.62l.63,1.42C264.06,535.36,273,541.06,273.1,541.12Z" fill="#fff"/><path d="M273.55,536.62l.84-1.3c-.4-.25-9.76-6.21-17.87-2.62l.63,1.42C264.5,530.86,273.46,536.56,273.55,536.62Z" fill="#fff"/><path d="M243.27,555.07c.56,10.33,32.84,6.66,38,3.54,2-1.21,2.81-3.52,3-6.31-3.39,2-9.36,4.38-18.29,4.57-10.95.24-18.86-2-22.64-4.29A20.54,20.54,0,0,0,243.27,555.07Z" fill="#2d2d2d"/><path d="M263.63,517.64a17.19,17.19,0,0,1,9.09,1.77l-.46,3.28s-5.86-1.7-9.74-1.43A7.61,7.61,0,0,1,263.63,517.64Z" fill="#fff"/><path d="M340.23,318.39s6.16,21.48,6.17,40.64c0,0-29.71,13.13-67.62-1.12a30.5,30.5,0,0,1-17.93-38.68c.06-.19.13-.37.19-.56C261,318.67,309.45,316.51,340.23,318.39Z" fill="#2d2d2d"/><path d="M250.53,321.5c6.16,2.85,12.48,15,19.21,17.1q2.68.84,5.42,1.56a120,120,0,0,0,29.43,4.18c16.46.17,33.14-3.57,48.65-13.21l-10.72-62.37,17-101.56-26-8.82-1.4-.47-2.56-.87-1.09-.37-2.19-.74-4.64-1.57-27.49,3.78-1.65.22-2.82.39-1.57.22-19.67,2.69Z" fill="#ab465f"/><path d="M275.16,340.16a120,120,0,0,0,29.43,4.18c-.45-2.8-.83-5.7-1.12-8.68q-.23-2.24-.39-4.53-.33-4.5-.45-9.23c-.05-1.49-.07-3-.08-4.51,0-3,0-6.08.08-9.19q.06-2.24.15-4.5.18-4.53.49-9.16c.09-1.49.2-3,.32-4.48q.35-4.55.8-9.15c.15-1.49.3-3,.46-4.48.33-3,.69-6.08,1.07-9.12.19-1.5.39-3,.58-4.49.41-3,.84-6.09,1.29-9.12l.69-4.48c.48-3.07,1-6.11,1.49-9.13.25-1.51.51-3,.78-4.49q.81-4.62,1.66-9.14c.28-1.5.57-3,.86-4.49q.9-4.65,1.83-9.15c.3-1.52.62-3,.93-4.51q1-4.69,2-9.17l1-4.51q1.08-4.77,2.13-9.2c.36-1.54.73-3.06,1.09-4.53.78-3.26,1.55-6.34,2.28-9.23l1.16-4.55c1-4,2-7.51,2.78-10.45l-2.19-.74-4.64-1.57-27.49,3.78-1.65.22q-.74,3.9-1.43,7.81c-.26,1.47-.52,3-.77,4.43q-.77,4.46-1.49,8.91c-.25,1.48-.48,3-.71,4.44q-.7,4.45-1.36,8.91c-.22,1.48-.44,3-.65,4.45q-.65,4.45-1.24,8.9c-.2,1.49-.4,3-.59,4.46-.4,3-.77,6-1.13,8.91-.19,1.5-.37,3-.55,4.48q-.52,4.49-1,8.91c-.17,1.51-.33,3-.49,4.49q-.48,4.51-.92,8.93c-.15,1.51-.3,3-.44,4.5-.3,3-.57,6-.83,8.94-.13,1.52-.26,3-.39,4.51q-.39,4.56-.73,9c-.12,1.53-.23,3-.34,4.53-.22,3.06-.43,6.06-.62,9-.1,1.54-.2,3.05-.29,4.54q-.28,4.65-.51,9c-.08,1.54-.16,3.06-.23,4.55-.15,3.15-.27,6.17-.37,9-.06,1.57-.11,3.1-.15,4.57-.1,3.27-.16,6.3-.2,9.08,0,1.62,0,3.15,0,4.59C275,335.28,275.07,338,275.16,340.16Z" fill="#fff"/><path d="M290.29,170.6a186.83,186.83,0,0,0,23.94,1.31q5,0,10.29-.24l1.16-4.55a208,208,0,0,1-34.62-1C290.8,167.64,290.54,169.12,290.29,170.6Z" fill="#e2e1e1"/><path d="M288.09,184a188.43,188.43,0,0,0,26.48,1.59c2.14,0,4.34,0,6.58-.11.36-1.54.73-3.06,1.09-4.53a200.62,200.62,0,0,1-33.44-1.39C288.55,181,288.32,182.47,288.09,184Z" fill="#e2e1e1"/><path d="M286.08,197.31A190.33,190.33,0,0,0,315,199.17l3.06,0,1-4.51a193.52,193.52,0,0,1-32.29-1.77C286.51,194.34,286.29,195.82,286.08,197.31Z" fill="#e2e1e1"/><path d="M284.25,210.67a190.75,190.75,0,0,0,30.85,2.15c.3-1.52.62-3,.93-4.51a186.58,186.58,0,0,1-31.19-2.1C284.64,207.7,284.44,209.19,284.25,210.67Z" fill="#e2e1e1"/><path d="M282.57,224.06a187.12,187.12,0,0,0,29.84,2.4c.28-1.5.57-3,.86-4.49a182.84,182.84,0,0,1-30.15-2.39C282.93,221.08,282.75,222.57,282.57,224.06Z" fill="#e2e1e1"/><path d="M281.06,237.46A183.58,183.58,0,0,0,310,240.09c.25-1.51.51-3,.78-4.49a178.65,178.65,0,0,1-29.2-2.63C281.38,234.48,281.22,236,281.06,237.46Z" fill="#e2e1e1"/><path d="M279.7,250.89a180.7,180.7,0,0,0,28.09,2.81l.69-4.48a176.15,176.15,0,0,1-28.34-2.83C280,247.9,279.84,249.4,279.7,250.89Z" fill="#e2e1e1"/><path d="M278.48,264.34a179,179,0,0,0,27.44,3c.19-1.5.39-3,.58-4.49a173.75,173.75,0,0,1-27.63-3C278.74,261.35,278.61,262.85,278.48,264.34Z" fill="#e2e1e1"/><path d="M277.41,277.83a177.61,177.61,0,0,0,27,3.08c.15-1.49.3-3,.46-4.48a172.36,172.36,0,0,1-27.1-3.13C277.63,274.83,277.52,276.33,277.41,277.83Z" fill="#e2e1e1"/><path d="M276.5,291.34a179.34,179.34,0,0,0,26.77,3.2c.09-1.49.2-3,.32-4.48a173.73,173.73,0,0,1-26.8-3.26C276.69,288.34,276.59,289.85,276.5,291.34Z" fill="#e2e1e1"/><path d="M275.76,304.9a181.32,181.32,0,0,0,26.87,3.3q.06-2.24.15-4.5A175.38,175.38,0,0,1,276,300.35C275.91,301.89,275.83,303.41,275.76,304.9Z" fill="#e2e1e1"/><path d="M275.24,318.5a185.37,185.37,0,0,0,27.39,3.4c-.05-1.49-.07-3-.08-4.51a177.83,177.83,0,0,1-27.16-3.46C275.33,315.5,275.28,317,275.24,318.5Z" fill="#e2e1e1"/><path d="M275,332.17a192.32,192.32,0,0,0,28.45,3.49q-.23-2.24-.39-4.53a183.81,183.81,0,0,1-28-3.55C275,329.2,275,330.73,275,332.17Z" fill="#e2e1e1"/><path d="M360.69,75.38a19.47,19.47,0,0,1,31.31,21,6.44,6.44,0,0,0-.63,3c.26,1.83,2.14,2.91,3.24,4.4,1.49,2,1.47,4.73,1.39,7.23-.13,4.32-.28,8.71-1.62,12.82s-4,8-8,9.71c-1.57.69-3.37,1.06-4.59,2.27-1.91,1.88-1.73,5-3.06,7.35-2.35,4.13-14.74,9.3-19.38,8.24-6.31-1.45-11.12-2.11-16.55-5.63-5-3.24-8.22-9.87-10.84-13.71" fill="#2d2d2d"/><path d="M301.39,136.45l-2.26,15.65-1,7.16c7.58,8.39,27.16.82,27.16.82l4.62-30.94c-3.56-3.61-17.41,3.31-24.15,3.79C302.55,133.16,301.39,136.45,301.39,136.45Z" fill="#efa585"/><path d="M296,60.61c-5.69,4.09-9.43,10.32-12.8,16.47-2.62,4.79-5.17,9.79-5.71,15.22-.18,1.7-.17,3.49-1,5a13.7,13.7,0,0,1-3.11,3.3c-6.8,6.26-7.85,17.65-2.79,25.27a.78.78,0,0,0,1.42-.35,8.78,8.78,0,0,1,3.71-5.92c2.65-1.89,5.93-2.62,9.06-3.55A64.41,64.41,0,0,0,328,71.17c.74-2.89,1.23-6.14-.29-8.71-2.48-4.22-7.76-3.92-12-4.1-2.07-.09-4-1.35-6.12-1.58a18.14,18.14,0,0,0-6.72.57A21.45,21.45,0,0,0,296,60.61Z" fill="#2d2d2d"/><path d="M292.79,85.22l-.57,1.54c-3.31,9.36-11.62,24.76-8.84,34.31,3.09,10.63,5.52,17,15.92,18.84,12.52,2.18,20.7,4.49,28.9,2.73h.08a9.35,9.35,0,0,0,5.67-3.72c2.25-3.15,5.58-8.06,6.9-11.16,6.29-14.81,16-35.48,16-35.48-7.21-22.77-46.23-30.15-57.08-19.77C297.26,74.88,294.92,79.5,292.79,85.22Z" fill="#f7b290"/><path d="M312.59,102.56c-.76,2-.5,3.87.57,4.28s2.55-.82,3.31-2.77.5-3.87-.57-4.28S313.35,100.61,312.59,102.56Z" fill="#32324b"/><path d="M292.75,94.84c-.76,2-.51,3.87.56,4.29s2.56-.83,3.31-2.78.51-3.86-.56-4.28S293.5,92.89,292.75,94.84Z" fill="#32324b"/><path d="M320.24,104.64a.45.45,0,0,0,.79-.42,8.84,8.84,0,0,0-3-4.29,9.84,9.84,0,0,0-7.11-2.06,1.28,1.28,0,0,0-1.11,1.25h0a1.28,1.28,0,0,0,1.37,1.3A10.36,10.36,0,0,1,320.24,104.64Z" fill="#32324b"/><path d="M345.32,110.28s9.17-5.12,12.68,1.28c3.87,7-8.88,22.33-20.41,17.41Z" fill="#f7b290"/><path d="M340.67,124.68a1.1,1.1,0,0,0,1.37-.52c4.17-7.9,9.57-7.26,9.8-7.23a1.11,1.11,0,0,0,1.24-.93,1.1,1.1,0,0,0-.92-1.25c-.29,0-7.13-1-12.07,8.38a1.1,1.1,0,0,0,.46,1.49Z" fill="#f18868"/><path d="M349.27,122a1.13,1.13,0,0,0,.79,0,1.1,1.1,0,0,0,.64-1.41,6.25,6.25,0,0,0-4.87-3.72,1.1,1.1,0,1,0-.34,2.18,4,4,0,0,1,3.14,2.32A1.13,1.13,0,0,0,349.27,122Z" fill="#f18868"/><path d="M340.36,127a10.61,10.61,0,0,1,4.06,1.7,10.46,10.46,0,1,1-16.21,10.76" fill="none" stroke="#e5dadf" stroke-linecap="round" stroke-linejoin="round" stroke-width="4"/><path d="M290.49,109a4.35,4.35,0,0,0,1.89,3,9.25,9.25,0,0,0,5.17,2" fill="none" stroke="#f18868" stroke-linecap="round" stroke-miterlimit="10" stroke-width="3"/><path d="M288.13,92.33a.46.46,0,0,1-.3-.85,9,9,0,0,1,5.1-1.15,9.86,9.86,0,0,1,6.63,3.29,1.28,1.28,0,0,1,0,1.67h0a1.29,1.29,0,0,1-1.89,0A10.3,10.3,0,0,0,288.13,92.33Z" fill="#32324b"/><path d="M323.06,92.47l.68.72c4.27,4.38,9.09,8.59,7.42,15.41-.43,1.76-1.26,3.39-1.83,5.11-1.26,3.74.49,6.74.69,10.47.39,7.49-7.26,13.95-8.74,20.76a.7.7,0,0,0,1.25.55,10.43,10.43,0,0,1,2.91-2.75c2.53-1.61,5.53-2.54,7.69-4.61,5.22-5,3.32-13.83,6.52-20.3,3.46-7,13.54-9.62,20-5.23,6.52-8.94,11.83-25.57,6.56-35.3-3.41-6.29-9.74-10.4-16.09-13.69s-13.27-6.09-20.44-6c-5.78.06-17.78,4.74-20.79,10.1-3.83,6.83,6.15,15,10.06,19.9C320.27,89.25,321.61,90.91,323.06,92.47Z" fill="#2d2d2d"/><path d="M324,94.77a.45.45,0,0,0,.87-.23A8.84,8.84,0,0,0,323,89.67a9.81,9.81,0,0,0-6.4-3.72,1.29,1.29,0,0,0-1.38,1h0a1.28,1.28,0,0,0,1,1.59A10.31,10.31,0,0,1,324,94.77Z" fill="#ba997b"/><path d="M326.55,311.24l-22.23-7.47s-11,1.84,5.53,7.32c0,0,3,4.58-6.33,5.53-2.14.22-13.38-.71-14.4.9-1.47,2.31-2.76,11.07,9.06,13.27,0,0,13.38,2.7,25.59-10.21Z" fill="#f7b290"/><path d="M384,243.21c-8.59-2-15.22,5.15-15.22,5.15-10.49,18.51-50.43,58.57-50.43,58.57l5.86,13.79C366,301.2,393,253.5,393,253.5S395.88,245.91,384,243.21Z" fill="#ab465f"/><path d="M385.84,261.07c9.56-4.76,7.73-12.23,7.73-12.23-7-28.52-34-81.64-34-81.64-11.07,2.06-15.3,42.44-15.3,42.44,5.29,14.84,27.45,50.9,27.45,50.9S376.13,265.92,385.84,261.07Z" fill="#ab465f"/><rect x="343.06" y="368.26" width="23.3" height="78.85" fill="#36498c"/><rect x="366.36" y="368.26" width="56.19" height="78.85" fill="#2d3a64"/><ellipse cx="354.71" cy="378.11" rx="3.89" ry="4.08" fill="#dee6f6"/><path d="M352,378.11a2.75,2.75,0,1,1,2.75,2.88A2.83,2.83,0,0,1,352,378.11Z" fill="#6372b5"/><rect x="349.31" y="387.94" width="10.96" height="20.77" fill="#92acda"/><rect x="393.74" y="418.71" width="44.03" height="14.89" fill="#cee0f5"/><rect x="437.77" y="418.71" width="44.03" height="14.89" fill="#a6c7eb"/><rect x="380.08" y="403.83" width="44.03" height="14.89" fill="#dbe8f8"/><rect x="424.12" y="403.83" width="44.03" height="14.89" fill="#96c0e8"/><rect x="404.73" y="361.86" width="44.03" height="14.89" fill="#d4e3f6"/><rect x="448.76" y="361.86" width="44.03" height="14.89" fill="#a6c7eb"/><rect x="391.07" y="346.97" width="44.03" height="14.89" fill="#f6fbff"/><rect x="435.1" y="346.97" width="44.03" height="14.89" fill="#c0d7f1"/><rect x="440.68" y="376.72" width="44.03" height="27.1" transform="translate(925.38 780.55) rotate(180)" fill="#c0d7f1"/><rect x="396.64" y="376.72" width="44.03" height="27.1" transform="translate(837.32 780.55) rotate(180)" fill="#f6fbff"/><rect x="359.94" y="433.66" width="129.64" height="100.47" fill="#ef7c4a"/><rect x="317.32" y="433.66" width="102.79" height="100.47" fill="#f18a68"/><rect x="346.55" y="443.37" width="32.62" height="6.69" rx="3.35" fill="#2d3a64"/><polygon points="380.01 495.45 355.74 490.98 360 465.52 384.27 469.99 380.01 495.45" fill="#a0bfe5"/><polygon points="383.58 474.1 359.31 469.63 360 465.52 384.27 469.99 383.58 474.1" fill="#92acda"/><polygon points="415.42 469.96 391.58 476.52 385.32 451.52 409.15 444.95 415.42 469.96" fill="#fab841"/><polygon points="410.17 449 386.33 455.56 385.32 451.52 409.15 444.95 410.17 449" fill="#f6a220"/><rect x="392.97" y="225.03" width="107.78" height="79.63" fill="#8d9ace"/><rect x="357.54" y="225.03" width="85.45" height="79.63" fill="#abb7de"/><rect x="381.83" y="232.72" width="27.12" height="5.31" rx="2.65" fill="#36498c"/><rect x="353.35" y="211.48" width="89.64" height="17.54" fill="#cbd5ee"/><rect x="442.99" y="211.48" width="60.44" height="17.54" fill="#687bbb"/><rect x="407.32" y="244.79" width="28.34" height="28.34" transform="translate(-51.96 115.58) rotate(-14.72)" fill="#f18a68"/><rect x="404.3" y="245.18" width="28.34" height="4.58" transform="translate(-49.14 114.44) rotate(-14.72)" fill="#ef7c4a"/><polygon points="412.99 175.73 435.46 157.64 468.8 161.71 468.8 175.73 412.99 175.73" fill="#ef7c4a"/><rect x="398.42" y="138.78" width="18.27" height="55.82" transform="translate(574.23 -240.87) rotate(90)" fill="#f18a68"/><path d="M428.49,163.84a2.89,2.89,0,1,1-2.89,2.89A2.89,2.89,0,0,1,428.49,163.84Z" fill="#dee6f6"/><path d="M428.49,165.11a1.62,1.62,0,1,1-1.62,1.62A1.62,1.62,0,0,1,428.49,165.11Z" fill="#21244c"/><rect x="408.82" y="158.15" width="8.14" height="17.28" transform="translate(579.68 -246.1) rotate(90)" fill="#c0d7f1"/><rect x="383" y="193.65" width="55.31" height="17.83" fill="#dee6f6"/><rect x="438.31" y="193.65" width="55.32" height="17.83" fill="#8d9ace"/><rect x="365.84" y="175.82" width="55.32" height="17.83" fill="#e9effa"/><rect x="421.16" y="175.82" width="55.31" height="17.83" fill="#bcc7e7"/><polygon points="445.18 141.41 411.64 135.23 417.53 100.05 451.07 106.23 445.18 141.41" fill="#a0bfe5"/><polygon points="450.12 111.92 416.58 105.74 417.53 100.05 451.07 106.23 450.12 111.92" fill="#92acda"/><polygon points="494.1 106.19 461.16 115.26 452.51 80.72 485.45 71.64 494.1 106.19" fill="#fab841"/><polygon points="486.85 77.22 453.91 86.3 452.51 80.72 485.45 71.64 486.85 77.22" fill="#f6a220"/><path d="M189.48,304.66h54.31a4.33,4.33,0,0,0-4.33-4.33h-50Z" fill="#16253d"/><polygon points="189.63 245.5 105.66 245.5 125.8 304.66 210.32 304.66 189.63 245.5" fill="#16253d"/><polygon points="104.42 245.5 124.56 304.66 209.08 304.66 188.4 245.5 104.42 245.5" fill="#19365e"/><rect x="322.81" y="288.49" width="49.17" height="17.83" fill="#e9effa"/><rect x="371.98" y="288.49" width="49.17" height="17.83" fill="#687bbb"/><rect x="455.27" y="240.26" width="19.96" height="64.39" fill="#ee7d2c"/><rect x="475.23" y="240.26" width="48.14" height="64.39" fill="#f49749"/><circle cx="465.25" cy="248.31" r="3.33" transform="translate(-39.31 401.71) rotate(-45)" fill="#dee6f6"/><path d="M462.9,248.31a2.36,2.36,0,1,1,2.35,2.35A2.36,2.36,0,0,1,462.9,248.31Z" fill="#6372b5"/><rect x="460.63" y="256.33" width="9.39" height="16.96" fill="#92acda"/><polygon points="90.54 299.98 92.78 299.98 92.78 261.43 69.87 202.99 110.77 171.3 109.4 169.53 67.18 202.25 90.54 261.85 90.54 299.98" fill="#687bbb"/><path d="M115.39,175.34h0a2.28,2.28,0,0,0,.54-3.18l-3.41-4.81a2.28,2.28,0,0,0-3.18-.54h0a2.28,2.28,0,0,0-.54,3.18l3.4,4.81A2.29,2.29,0,0,0,115.39,175.34Z" fill="#687bbb"/><path d="M72,202.32a3,3,0,1,0-3,3A3,3,0,0,0,72,202.32Z" fill="#687bbb"/><path d="M80.79,298.87h22.53a0,0,0,0,1,0,0v0a6.41,6.41,0,0,1-6.41,6.41H87.2a6.41,6.41,0,0,1-6.41-6.41v0A0,0,0,0,1,80.79,298.87Z" transform="translate(184.1 604.15) rotate(180)" fill="#687bbb"/><rect x="89.3" y="264.16" width="4.73" height="35.82" transform="translate(183.34 564.14) rotate(180)" fill="#687bbb"/><path d="M110.32,208.59c.11.12.21.24.32.35l0,0c.1.12.2.23.31.34,3.06,2.65,13.2-2.1,23-10.87s15.66-18.32,13.36-21.66l-.3-.35,0,0-.31-.36a24.42,24.42,0,1,0-36.4,32.55Z" fill="#f49749"/><path d="M110.64,208.94l0,0,.1.13.22.21c3.06,2.65,13.2-2.1,23-10.88s15.67-18.31,13.37-21.64a1.55,1.55,0,0,0-.19-.24.6.6,0,0,0-.11-.12l0,0c-2.08-2-7.73-.22-14.34,4.06a72.84,72.84,0,0,0-8.75,6.74,78.16,78.16,0,0,0-6.24,6.25C111.75,200.21,108.76,206.44,110.64,208.94Z" fill="#f9ddbf"/><path d="M117.7,193.45a10.06,10.06,0,0,0,15-13,72.84,72.84,0,0,0-8.75,6.74A78.16,78.16,0,0,0,117.7,193.45Z" fill="#feeee1"/><rect x="57.87" y="304.66" width="475.14" height="13.31" rx="6.65" fill="#ba997b"/><path d="M66.51,537.2l-.16,0a3.39,3.39,0,0,1-3-3.76L92.08,311.31l16.09.46L69.58,535A2.76,2.76,0,0,1,66.51,537.2Z" fill="#ba997b"/><path d="M534.45,537.2l.16,0a3.38,3.38,0,0,0,3-3.76L508.88,311.31l-16.09.46L531.38,535A2.76,2.76,0,0,0,534.45,537.2Z" fill="#ba997b"/><path d="M290.84,80.49a.45.45,0,0,1-.41-.79,9.28,9.28,0,0,1,5-1.86,10.11,10.11,0,0,1,7.19,2.33,1.25,1.25,0,0,1,.18,1.66h0a1.34,1.34,0,0,1-1.91.3A10.72,10.72,0,0,0,290.84,80.49Z" fill="#ba997b"/><path d="M296.74,121.75c3.06.3,7.33-.65,10.41-.46.26.45-1.38,1.55-1.8,1.85-3.06,2.25-6.18,4.52-9.76,5.77a5.11,5.11,0,0,1-2.58.36c-1.75-.33-2.81-2.11-3.51-3.75a40.28,40.28,0,0,1-2-5.79c-.91-3.59,2.11-.6,3.23.13A13.31,13.31,0,0,0,296.74,121.75Z" fill="#efefef"/><path d="M69.16,76.7A31.74,31.74,0,0,1,80.4,67.4c5.86-2.83,23.49-9.12,28.06-11.55a57.08,57.08,0,0,0,13.83-10.41l22.87,14a66.68,66.68,0,0,1-10.93,10.29c-6.35,4.63-23.25,7-31.6,13.7C97.22,87.81,91,99.23,91,99.23Z" fill="#bdd578"/><path d="M90.15,96.15,72,76.66l.26-.44c.12-.19,2.89-4.7,12-8.94,2.85-1.33,7-3,11.36-4.78,5.77-2.34,11.74-4.76,15-6.49,4.63-2.45,11.5-8.52,11.57-8.58l.38-.34,20.83,12.58-.5.61a31,31,0,0,1-3.31,3.36,51.79,51.79,0,0,1-9.62,6.82,60.64,60.64,0,0,1-12.38,4.66c-6.11,1.82-12.43,3.69-18,8.29-4.18,3.46-8.9,11.84-8.94,11.92ZM73.67,76.51,89.88,93.86c1.32-2.23,5.17-8.49,8.8-11.5,5.77-4.78,12.22-6.69,18.46-8.54a60,60,0,0,0,12.11-4.55,47.82,47.82,0,0,0,12-9.26L122.66,48.78c-1.53,1.33-7.27,6.22-11.46,8.44-3.31,1.75-9.31,4.19-15.12,6.54-4.36,1.77-8.47,3.44-11.29,4.75a35.39,35.39,0,0,0-9,5.75A17.3,17.3,0,0,0,73.67,76.51Z" fill="#6da738"/><path d="M99.57,61.6c-2.88,1.41-4.76,5-.75,9.71s11.7,5.71,15.06,4.54,4.33-7.2,1.06-10.47S106.12,58.39,99.57,61.6Z" fill="#6da738"/><path d="M90.9,76.49A1.82,1.82,0,0,1,91,79c-.62.5-1.7.18-2.4-.7a1.54,1.54,0,1,1,2.27-1.8Z" fill="#6da738"/><path d="M127.05,57.6a1.54,1.54,0,1,1-2,2.12,1.54,1.54,0,1,1,2-2.12Z" fill="#6da738"/><path d="M110.93,73.31l1.65-.77-.81-.83c2.29-1.22,2.36-2.95,1.06-4.39-1.75-1.93-4.67-1.23-5.82-.75s-2.18.8-3,.33-.22-1.52.76-2.1c1.44-.86,1.94-.2,1.94-.2l1.86-.73a3.93,3.93,0,0,0-4.28-.62l-.78-.6-1.17.59.68.66a2.92,2.92,0,0,0-.95,3.81c1.5,2.07,4.14,1.26,5.16.68,1.22-.69,2.36-.86,2.85-.45,1.56,1.3.75,2.06-.59,2.73-1.8.89-2.58-.23-2.58-.23l-2.6,1.31s.88,2.46,5.87.71Z" fill="#bdd578"/><path d="M45.33,118.06s1.19,6.11,7.08,12.42c3.43,3.68,15.79,1.05,21.58,11,5.09,8.72,4.23,21.56,4.23,21.56l28.69-16.74s.59-12.09-7-20.17c-5.18-5.47-17-2.72-23.65-9.31a79.73,79.73,0,0,1-7.1-8.89Z" fill="#bdd578"/><path d="M47.44,119.13a25.37,25.37,0,0,0,6.76,10.08c3.1,2.95,17,1.1,21.91,9.5,4.34,7.37,4.49,19.91,4.49,19.91l24.5-14s-.75-11.32-7.29-18.15c-4.43-4.62-16.9-2.61-22.59-8.18-2.57-2.52-6.26-8.63-6.26-8.63Z" fill="#6da738"/><path d="M49.45,120.07s1.06,3.6,6.09,8c4.56,4,17.14.73,21.72,9.2,4,7.44,4.81,18.07,4.81,18.07l21-12a27.33,27.33,0,0,0-6.11-15.71c-4-4.7-18.35-3.37-23.28-9.24a58.52,58.52,0,0,1-4.85-7.14Z" fill="#bdd578"/><path d="M70.94,133.05c-2.38-1-4.73-3.46-.33-6.35a23.69,23.69,0,0,1,16.09-3.43c4.66.77,7.43,4.17,1.66,7.77s-11,4.69-13.12,4.19A13.33,13.33,0,0,1,70.94,133.05Z" fill="#6da738"/><path d="M67.53,120.26a2,2,0,1,1-2.4-1A1.84,1.84,0,0,1,67.53,120.26Z" fill="#6da738"/><path d="M94.18,139.57a2,2,0,1,1-2.52-1.29A2,2,0,0,1,94.18,139.57Z" fill="#6da738"/><path d="M84.81,125.32l.86-.53-1.49-.73-1,.65a7.28,7.28,0,0,0-2.2-.26c-1.5.09-5.11,1.16-4.15,2.69.82,1.31,3.86,2.27,1.27,3.47-1.24.57-3.56-.33-3.62-1.33a1.57,1.57,0,0,1,.55-1.23l-1.14-.93s-3,2.1-.45,4.27h0l-1,.68,1.39.71,1-.6a7,7,0,0,0,5.45-.23,2,2,0,0,0,.37-3.5c-1-.72-2.27-1.53-1.34-2.17a3.57,3.57,0,0,1,3.61-.21,1.36,1.36,0,0,1,.32,1.81l1.72.72s1.42-1.2.79-2.4A2.39,2.39,0,0,0,84.81,125.32Z" fill="#bdd578"/><path d="M136.42,84.13s-5.73,5.59-7.2,12.62.4,22.66-1.91,27.92-5.16,10.21-5.16,10.21l27,13.07s5.29-12.24,5.84-17.82c.76-7.77-2.68-17.89-.9-23,2.11-6,8.71-16.88,8.71-16.88Z" fill="#bdd578"/><path d="M137.22,85.92a34.41,34.41,0,0,0-5.77,12.26c-1.34,6.51-.12,20.85-2.11,25.74s-4.39,9.51-4.39,9.51l22.67,11.22a70.34,70.34,0,0,0,5.12-14.73c1.24-6-2.13-18.19-.73-23s7.07-15.35,7.07-15.35Z" fill="#6da738"/><path d="M150.09,106.52c1.33-5.59,6.27-13.84,6.27-13.84l-18-4.9a26.91,26.91,0,0,0-5.33,11c-1.54,6.14-.28,20.58-2,25.27s-3.84,9.11-3.84,9.11l19.25,8.45a60.77,60.77,0,0,0,4.47-12.06C152.71,122,149,111.13,150.09,106.52Z" fill="#bdd578"/><path d="M131.76,110.93c-.06-4.09,2.32-6.25,8.45-5,7,1.41,11.14,5.78,11.07,8.64s-.54,8.94-9,7.27c-5.64-1.11-10.84-5.56-10.83-7.56A15.67,15.67,0,0,1,131.76,110.93Z" fill="#6da738"/><path d="M148.24,116.4l.22-1.7-1.07-.2c.19-2.41-.52-4.1-2.91-4.61-3.22-.68-3.94,1.79-4.73,3s-1.12,2-2,1.81-1.38-.79-1.25-2.06c.24-2.2,1.67-1.72,1.67-1.72l.29-2.11a3.32,3.32,0,0,0-4.11,2.67l-1-.19-.19,1.41,1,.34a3.76,3.76,0,0,0,2.53,3.74c3.08,1,4.09-1.19,4.69-2.38.7-1.42,1.34-2.33,2.29-2.14,1.25.24,1.69,1.15,1.33,2.61a2,2,0,0,1-2.58,1.52l-.31,2s4.12,1.53,5-2.23Z" fill="#bdd578"/><path d="M146.16,97.53a1.75,1.75,0,1,1-.91-2.24A1.7,1.7,0,0,1,146.16,97.53Z" fill="#6da738"/><path d="M139.9,132.66a1.75,1.75,0,1,1-.91-2.23A1.72,1.72,0,0,1,139.9,132.66Z" fill="#6da738"/><path d="M240.9,73.27c-4.73-2.22-9.53-4.45-13.38-6.5l-6.32-3.34-20.33-7.15,17,15.84a79,79,0,0,0,21.31,5.28,57,57,0,0,0,13.79.07A97.47,97.47,0,0,1,240.9,73.27Z" fill="#9faf60"/><path d="M235.83,76.33a61.18,61.18,0,0,1-7.51-1.46c-5.56-1.48-9.78-3-9.78-3s-2.92-2.42-4.41-3.76c-1.34-1.21-4.64-4.51-4.75-4.65l.84-.61L215,67.15c1.32,1.19,3.71,3.17,4.2,3.58.67.23,4.44,1.55,9.46,2.88A95.45,95.45,0,0,0,242.81,76,90,90,0,0,1,232,71.61c-4.78-2.28-13-7.38-13.05-7.43l.69-1.1c.08.05,8.21,5.11,12.92,7.35,3.38,1.62,11.85,5.31,11.94,5.35l3,1.29-3.24,0A78.44,78.44,0,0,1,235.83,76.33Z" fill="#639334"/><path d="M210.06,63.43a9.28,9.28,0,0,0,5.6,2.05c2.54.06,5.75-.56,4.38-1.55S210.06,63.43,210.06,63.43Z" fill="#639334"/><path d="M163.28,58s9.82-4.4,14.14-5.14c12.71-2.17,23.64.91,24.76,1.07,3.62.49,25.44,12.93,25.44,12.93s-10.35-6.21-25.32-1C194.79,68.45,188,71.59,188,71.59Z" fill="#bdd578"/><path d="M220.25,62.72c-1.16-.64-1.55-.87-2.82-1.56a46.17,46.17,0,0,0-13.24.85c-5.25,1.28-14,4.93-15.88,5.72l-19.17-9.81c1.08-.47,2.69-1.13,4.63-1.76a50.27,50.27,0,0,1,13.28-2.58,73.23,73.23,0,0,1,19.73,2.22,7.33,7.33,0,0,0-2-1,80.47,80.47,0,0,0-18-2.24,48.49,48.49,0,0,0-13.6,2.13A46.33,46.33,0,0,0,167,57.18l-1.39.7,22.66,11.6.34-.15c.1,0,10.33-4.41,16-5.78a41.81,41.81,0,0,1,12.53-1.22A27.6,27.6,0,0,1,220.25,62.72Z" fill="#6da738"/><path d="M205.71,55.22c-2.07-.31-4.64-.42-2.47,1.74,3.42,3.38,11.46,4.87,13.54,5a20,20,0,0,1,2.83.34c-.16,0-3.14-1.64-6.54-3.48S205.71,55.22,205.71,55.22Z" fill="#6da738"/><path d="M188.87,57.94c1.16.71,1.82,1.74,1.48,2.3s-1.56.43-2.72-.28-1.82-1.73-1.48-2.29S187.71,57.23,188.87,57.94Z" fill="#6da738"/><path d="M224.43,69.71c1.29.44,2.23,1.09,2.11,1.45s-1.27.29-2.55-.15-2.23-1.09-2.11-1.45S223.15,69.27,224.43,69.71Z" fill="#639334"/><text transform="translate(591.85 170.06)" font-size="29" fill="#1d1d1b" font-family="Helvetica">Margarete arbeitet seit sieben Jahren als Produkt-<tspan x="0" y="48">managerin bei der</tspan><tspan x="233.76" y="48" letter-spacing="-0.05em"> </tspan><tspan x="240.23" y="48">Advise Consulting</tspan><tspan x="472.36" y="48" letter-spacing="-0.05em"> </tspan><tspan x="478.83" y="48">AG. Morgen gibt </tspan><tspan x="0" y="96">es endlich wieder Gehalt – ein Schritt näher zum </tspan><tspan x="0" y="144">nächsten Sommerurlaub! Das neue Projekt läuft heute </tspan><tspan x="0" y="192">an und sie könnte ja schonmal die Kollegen vom </tspan><tspan x="0" y="240">Marketing anrufen… aber für Eigeninitiative wird sie </tspan><tspan x="0" y="288">hier schließlich nicht bezahlt – viel zu anstrengend. </tspan><tspan x="0" y="336">Erstmal schauen, was ihr Chef Marcus dazu sagt. </tspan></text><text transform="translate(591.19 104.32)" font-size="48" fill="#1d1d1b" font-family="AmericanTypewriter, American Typewriter" letter-spacing="0.02em">R<tspan x="35.9" y="0" letter-spacing="0em">ational Economic Man</tspan></text><path d="M1364.71,11.45V582H12V11.45H1364.71m7-7H5V589H1371.71V4.45Z" fill="#c0d7f1"/></svg>