<svg xmlns="http://www.w3.org/2000/svg" width="485.78mm" height="210mm" viewBox="0 0 1377.03 595.28"><text transform="translate(591.85 170.06)" font-size="29" fill="#1d1d1b" font-family="Helvetica">Karina aus dem Marketingteam der<tspan x="452.95" y="0" letter-spacing="-0.05em"> </tspan><tspan x="459.42" y="0">Advise</tspan><tspan x="546.46" y="0" letter-spacing="-0.05em"> </tspan><tspan x="552.93" y="0">AG hat </tspan><tspan x="0" y="48">immer etwas zu erzählen – sie kennt jeden im Büro </tspan><tspan x="0" y="96">und weiß immer als erste von Neuigkeiten in der </tspan><tspan x="0" y="144">Firma. Heute nachmittag findet endlich der Kick-O</tspan><tspan x="641.5" y="144" letter-spacing="-0.02em">f</tspan><tspan x="649.05" y="144">f </tspan><tspan x="0" y="192">für das große neue Projekt statt. Gemeinsam mit ihren </tspan><tspan x="0" y="240">Kollegen Konstantin und Kathrin bildet sie ein </tspan><tspan x="0" y="288">eingeschworenes</tspan><tspan x="225.7" y="288" letter-spacing="-0.02em"> </tspan><tspan x="233.25" y="288" letter-spacing="-0.11em">T</tspan><tspan x="247.75" y="288">eam – diesen</tspan><tspan x="421.87" y="288" letter-spacing="-0.02em"> </tspan><tspan x="429.41" y="288" letter-spacing="-0.11em">T</tspan><tspan x="443.91" y="288">ermin werden sie </tspan><tspan x="0" y="336">sicher rocken!</tspan></text><text transform="translate(591.19 104.32)" font-size="48" fill="#1d1d1b" font-family="AmericanTypewriter, American Typewriter">Social Man</text><path d="M1364.71,11.45V582H12V11.45H1364.71m7-7H5V589H1371.71V4.45Z" fill="#c0d7f1"/><path d="M279.93,530.46h.25a3.37,3.37,0,0,0,3.41-3.6L270.05,391.59l-11.82,1.05,19.44,136A2.22,2.22,0,0,0,279.93,530.46Z" fill="#b1c1e5"/><path d="M149.52,530.46h-.25a3.35,3.35,0,0,1-3.4-3.6l13.54-135.26,11.82,1.05-19.45,136A2.2,2.2,0,0,1,149.52,530.46Z" fill="#b1c1e5"/><path d="M375.48,530.46h.25a3.37,3.37,0,0,0,3.41-3.6L365.59,391.59l-11.81,1.05,19.44,136A2.22,2.22,0,0,0,375.48,530.46Z" fill="#b1c1e5"/><path d="M153.55,371.91l-24-118.72c-3.08-16.07,10.24-30.77,27.53-30.38l46.37,1.06a36.62,36.62,0,0,1,34.34,26.44l35.18,121.6Z" fill="#d3def3"/><path d="M168.1,371.91l-24-118.72c-3.09-16.07,10.23-30.77,27.53-30.38L218,223.87a36.64,36.64,0,0,1,34.35,26.44l35.17,121.6Z" fill="#b1c1e5"/><path d="M164.38,371.91H339.57a10.83,10.83,0,0,1,10.83,10.83v10.83a0,0,0,0,1,0,0h-186a10.83,10.83,0,0,1-10.83-10.83v0A10.83,10.83,0,0,1,164.38,371.91Z" transform="translate(503.95 765.48) rotate(-180)" fill="#d3def3"/><rect x="240.94" y="371.91" width="127.73" height="21.65" rx="10.83" transform="translate(609.61 765.48) rotate(-180)" fill="#b1c1e5"/><path d="M325.17,158.36,341,137.86s11.21-5.05-.58,10.11c0,0,.07,6,9.21,1.19,2.09-1.11,11.83-8.86,13.76-8,2.76,1.22,9.33,8.47-.17,17.74,0,0-10.63,10.69-29.76,6.33Z" fill="#f7b290"/><path d="M290,214.14C307.11,198,337.44,166,337.44,166a25.65,25.65,0,0,1-9.85-11.32s-28.76,26.16-36.34,31.9c-5.47,4.15-18.16,14.3-24.82,19.65l3.3,5.28A13.2,13.2,0,0,0,290,214.14Z" fill="#a8ba65"/><path d="M286,210.4c-1.74,3.26-1.51,8.26-4.59,6.22h0a15.11,15.11,0,0,1-9.95-1.17C260.21,210,238.13,201.1,222.64,186c-8.9-8.67-5.93-24.13-7.85-40.66,0,0,27.05,10.82,72.44,55.63h0a4.85,4.85,0,0,1,2.51,6.8Z" fill="#a8ba65"/><path d="M172.63,348.88c.52,1.14.41,14.65,7,18.5s12.6-14.59,12.6-14.59l-19.62-3.91" fill="#a5a7a7"/><path d="M101.91,135c-4.43,13.22-6.91,26.92-11,40.24-13.33,43,9.52,53.41,32.72,64.43,7.94,3.77,16.69,5.49,25.41,6.59,13.62,1.73,28.41,1.79,39.89-5.73,13.9-9.11,19.21-26.72,22.2-43.08,1-5.75,1.94-11.62,1.24-17.42-1.72-14.34-12.74-25.95-16.1-40-1.55-6.46-1.41-13.19-1.9-19.81-1.3-17.51-27.62-32.26-19.49-47.82,19.29-36.95-39.25-26.63-52.09-11.64-7.25,8.46-7.28,23.55-9.6,33.91A408.23,408.23,0,0,1,101.91,135Z" fill="#5b332b"/><path d="M317.86,237.06c-6.78,28.11-44.71,122.33-44.71,122.33-5,7.84-12.08,11.62-18.94,12-4.38.23-23,.54-25.67-1.12C213.85,361,250,314.06,250,314.06c8.54-30.63,40.37-92.13,40.37-92.13s9.52-7.33,19.93-1.63C322.54,227,317.86,237.06,317.86,237.06Z" fill="#a5a7a7"/><path d="M296.62,219.08,418.09,197.9l4.53,17.34c-45.29,16.11-84.2,33.18-118.07,34.22,0,0-2.69-2.68-5.95-15a61.49,61.49,0,0,1-2-15.41" fill="#a5a7a7"/><path d="M279.8,249.11l79.06,94.61L346.1,356.31c-36.59-31.17-70.82-56.34-88.65-85.15,0,0,1-3.67,10-12.63a60.71,60.71,0,0,1,12.36-9.42" fill="#a5a7a7"/><path d="M172,312.32s-2.26,22.22,1.13,41.09c0,0,31.57,7.65,66.35-13.09a30.5,30.5,0,0,0,10.8-41.24c-.1-.17-.2-.34-.29-.51C250,298.57,202,305,172,312.32Z" fill="#a5a7a7"/><path d="M260.81,299.48c-5.55,3.9-9.62,17-15.88,20.24-1.66.86-3.35,1.7-5.05,2.49a119.71,119.71,0,0,1-28.22,9.33c-16.18,3.08-33.26,2.36-50.23-4.39l-.49-63.28L126.2,166.93l24.06-13.28,1.29-.72,2.37-1.3,1-.56,2-1.12,4.28-2.36L189,146.43l1.67-.07,2.84-.12,1.58-.06,19.84-.83Z" fill="#a8ba65"/><path d="M239.88,322.21a119.71,119.71,0,0,1-28.22,9.33c-.06-2.83-.2-5.75-.44-8.74-.11-1.5-.26-3-.42-4.53-.32-3-.71-6-1.19-9.16-.22-1.47-.46-3-.72-4.46q-.76-4.44-1.71-9c-.3-1.46-.61-2.93-.94-4.4q-1-4.43-2.1-8.93c-.36-1.45-.73-2.9-1.12-4.36q-1.14-4.41-2.41-8.86c-.4-1.44-.82-2.88-1.24-4.33q-1.29-4.39-2.67-8.79c-.45-1.44-.91-2.88-1.37-4.31-.94-2.93-1.9-5.84-2.88-8.75L191,238.61c-1-2.93-2-5.84-3.09-8.72-.51-1.43-1-2.86-1.55-4.28q-1.62-4.41-3.26-8.7c-.54-1.43-1.09-2.85-1.64-4.27q-1.71-4.41-3.42-8.68c-.57-1.44-1.15-2.86-1.72-4.27-1.2-3-2.4-5.86-3.57-8.67q-.9-2.18-1.8-4.27-1.91-4.5-3.72-8.67c-.63-1.46-1.26-2.88-1.87-4.27q-2-4.6-3.88-8.68-1-2.22-2-4.27c-1.73-3.75-3.28-7.05-4.59-9.79l2-1.12,4.28-2.36L189,146.43l1.67-.07c.93,2.47,1.86,4.94,2.78,7.43.52,1.41,1,2.82,1.55,4.23q1.54,4.24,3,8.5c.5,1.41,1,2.83,1.49,4.25q1.48,4.26,2.91,8.52c.48,1.42,1,2.84,1.43,4.26.95,2.86,1.88,5.7,2.8,8.54.46,1.43.92,2.87,1.37,4.29.92,2.87,1.81,5.73,2.69,8.57l1.33,4.31c.88,2.89,1.74,5.75,2.58,8.6.43,1.44.86,2.89,1.28,4.32.85,2.91,1.68,5.78,2.49,8.63q.63,2.19,1.23,4.35c.83,2.92,1.62,5.81,2.4,8.66l1.18,4.36q1.2,4.42,2.3,8.69c.39,1.48.77,2.94,1.14,4.4q1.15,4.46,2.2,8.72c.38,1.49.74,3,1.09,4.41q1.11,4.53,2.1,8.78c.36,1.5.7,3,1,4.43.7,3.08,1.36,6,2,8.83l1,4.47q1,4.8,1.79,8.9c.31,1.59.59,3.1.84,4.52C239.15,317.39,239.58,320,239.88,322.21Z" fill="#e2e1e1"/><path d="M195,158a186.88,186.88,0,0,1-23.33,5.52q-4.89.87-10.17,1.59-1-2.22-2-4.27a208.4,208.4,0,0,0,33.9-7.07C193.93,155.2,194.45,156.61,195,158Z" fill="#e2e1e1"/><path d="M199.49,170.77A190.62,190.62,0,0,1,173.71,177c-2.12.37-4.28.72-6.5,1.06-.63-1.46-1.26-2.88-1.87-4.27A200.87,200.87,0,0,0,198,166.52C198.5,167.93,199,169.35,199.49,170.77Z" fill="#e2e1e1"/><path d="M203.83,183.55a188.7,188.7,0,0,1-28.09,6.95l-3,.52q-.9-2.18-1.8-4.27a193.3,193.3,0,0,0,31.47-7.46C202.88,180.71,203.36,182.13,203.83,183.55Z" fill="#e2e1e1"/><path d="M208,196.38A190.16,190.16,0,0,1,178,204c-.57-1.44-1.15-2.86-1.72-4.27a187.08,187.08,0,0,0,30.33-7.6C207.09,193.52,207.55,195,208,196.38Z" fill="#e2e1e1"/><path d="M212,209.26a185.94,185.94,0,0,1-28.94,7.65c-.54-1.43-1.09-2.85-1.64-4.27A181.64,181.64,0,0,0,210.69,205Z" fill="#e2e1e1"/><path d="M215.88,222.18a182.7,182.7,0,0,1-28,7.71c-.51-1.43-1-2.86-1.55-4.28a178.87,178.87,0,0,0,28.26-7.75C215,219.3,215.46,220.75,215.88,222.18Z" fill="#e2e1e1"/><path d="M219.6,235.16a181.13,181.13,0,0,1-27.15,7.74L191,238.61a176.72,176.72,0,0,0,27.39-7.8Q219,233,219.6,235.16Z" fill="#e2e1e1"/><path d="M223.18,248.18A179.69,179.69,0,0,1,196.7,256c-.45-1.44-.91-2.88-1.37-4.31A175,175,0,0,0,222,243.82Z" fill="#e2e1e1"/><path d="M226.62,261.27a178.65,178.65,0,0,1-26,7.81c-.4-1.44-.82-2.88-1.24-4.33a171.53,171.53,0,0,0,26.11-7.88C225.87,258.35,226.25,259.81,226.62,261.27Z" fill="#e2e1e1"/><path d="M229.91,274.4a179.8,179.8,0,0,1-25.77,7.9c-.36-1.45-.73-2.9-1.12-4.36a173,173,0,0,0,25.8-7.95C229.2,271.48,229.56,273,229.91,274.4Z" fill="#e2e1e1"/><path d="M233,287.61a180.18,180.18,0,0,1-25.86,8c-.3-1.46-.61-2.93-.94-4.4A177.19,177.19,0,0,0,232,283.18C232.37,284.68,232.71,286.16,233,287.61Z" fill="#e2e1e1"/><path d="M236,300.91a186.83,186.83,0,0,1-26.36,8.2c-.22-1.47-.46-3-.72-4.46A177.35,177.35,0,0,0,235,296.44Z" fill="#e2e1e1"/><path d="M238.6,314.33a193.18,193.18,0,0,1-27.38,8.47c-.11-1.5-.26-3-.42-4.53a183.07,183.07,0,0,0,27-8.46C238.07,311.4,238.35,312.91,238.6,314.33Z" fill="#e2e1e1"/><path d="M178,126.37l5,15,2.29,6.87c-6,9.6-26.59,5.61-26.59,5.61l-10-29.63c2.87-4.18,17.73.17,24.45-.55C176.26,123.34,178,126.37,178,126.37Z" fill="#efa585"/><path d="M201,61.28c4.39,5.48,6.32,12.47,7.91,19.3,1.24,5.32,2.35,10.83,1.41,16.21-.29,1.68-.78,3.4-.41,5.07a13.63,13.63,0,0,0,2.1,4c4.87,7.86,2.82,19.11-4.1,25.09a.78.78,0,0,1-1.28-.71,8.76,8.76,0,0,0-2-6.7c-2-2.54-5-4.13-7.78-5.86a64.42,64.42,0,0,1-29.49-54.82c.07-3-1.8-8.64.35-10.71,3.53-3.4,10.8.71,14.9,1.66,2,.47,4.23-.22,6.32.12a18.14,18.14,0,0,1,6.31,2.36A21.35,21.35,0,0,1,201,61.28Z" fill="#5b332b"/><path d="M197.55,85.86c0,.54.09,1.08.13,1.64.68,9.9,4.54,27-.7,35.42-5.84,9.4-9.89,14.92-20.4,13.87-12.65-1.28-21.14-1.25-28.57-5.14l-.07,0a9.31,9.31,0,0,1-4.46-5.1c-1.32-3.65-3.22-9.26-3.65-12.61-2.08-16-5.85-38.47-5.85-38.47,13.07-20,52.63-16.61,60.3-3.69C196,74.69,197,79.78,197.55,85.86Z" fill="#f7b290"/><path d="M165.62,97.73a.45.45,0,0,1-.64-.62,9,9,0,0,1,4-3.33,9.84,9.84,0,0,1,7.4-.07,1.27,1.27,0,0,1,.72,1.5h0a1.27,1.27,0,0,1-1.66.89A10.32,10.32,0,0,0,165.62,97.73Z" fill="#32324b"/><path d="M140.22,95.88s-7.45-7.4-12.56-2.18c-5.62,5.75,2.55,23.89,15,22.26Z" fill="#f7b290"/><path d="M140.83,111a1.09,1.09,0,0,1-1.18-.86c-1.89-8.73-7.27-9.57-7.49-9.6a1.11,1.11,0,0,1-.95-1.24,1.1,1.1,0,0,1,1.22-1c.29,0,7.13,1,9.37,11.32A1.1,1.1,0,0,1,141,111Z" fill="#f18868"/><path d="M133.27,106.09a1.12,1.12,0,0,1-.76-.21,1.09,1.09,0,0,1-.24-1.53,6.26,6.26,0,0,1,5.69-2.28,1.11,1.11,0,0,1,1,1.23,1.09,1.09,0,0,1-1.22,1,4,4,0,0,0-3.66,1.39A1.1,1.1,0,0,1,133.27,106.09Z" fill="#f18868"/><path d="M193.37,109.4a4.29,4.29,0,0,1-2.61,2.33,9.26,9.26,0,0,1-5.52.56" fill="none" stroke="#f18868" stroke-linecap="round" stroke-miterlimit="10" stroke-width="3"/><path d="M190.83,121.51c-2.44,2.55-6.11,3-8.91,2.75a17.76,17.76,0,0,1-12.09-5.83" fill="none" stroke="#e37960" stroke-linecap="round" stroke-miterlimit="10" stroke-width="3"/><path d="M198.17,94.26c.34.23.8-.33.56-.69A5.73,5.73,0,0,0,195.42,91a8,8,0,0,0-6.26,1.07,1.51,1.51,0,0,0-.65,1.53h0a.89.89,0,0,0,1.38.58A7.68,7.68,0,0,1,198.17,94.26Z" fill="#32324b"/><path d="M166.45,84.7c-.28.18-.56.35-.85.51-5.29,3.08-11.07,5.83-11.29,12.85-.06,1.81.3,3.61.4,5.41.2,4-2.3,6.37-3.49,9.91-2.39,7.1,3.24,15.38,2.84,22.34a.7.7,0,0,1-1.35.2,10.4,10.4,0,0,0-2.07-3.44c-2-2.23-4.64-3.92-6.17-6.5-3.68-6.21.52-14.22-.82-21.31-1.46-7.66-10.45-12.91-17.84-10.4C121.94,83.9,121.3,66.45,129,58.5c5-5.14,12.17-7.4,19.17-8.86s14.41-2.3,21.31-.3c5.54,1.61,15.85,9.34,17.3,15.31,1.86,7.6-10,12.85-15,16.47C170,82.35,168.27,83.59,166.45,84.7Z" fill="#5b332b"/><path d="M164.42,84.79a.46.46,0,0,1-.64-.64,8.85,8.85,0,0,1,4.07-3.26,9.85,9.85,0,0,1,7.41,0,1.28,1.28,0,0,1,.7,1.52h0a1.28,1.28,0,0,1-1.68.85A10.34,10.34,0,0,0,164.42,84.79Z" fill="#2d2d2d"/><path d="M121.17,250.24c6.72-5.86,4.77-16.7,4.77-16.7-9.13-22.51-18.64-85.87-18.64-85.87L92.37,142.5c-8.66,49.83,14.87,107.86,14.87,107.86S111.83,258.38,121.17,250.24Z" fill="#a8ba65"/><path d="M117,258c-10.25-2.82-9.78-10-9.78-10,1.78-27.49,19-81,19-81,11.26.07,22.59,36.64,22.59,36.64-2.58,14.58-18,51.54-18,51.54S127.39,260.81,117,258Z" fill="#a8ba65"/><path d="M200,83.47a.45.45,0,0,0,.61-.66,9.32,9.32,0,0,0-4.35-3.14,10.11,10.11,0,0,0-7.55.31,1.26,1.26,0,0,0-.62,1.55h0a1.33,1.33,0,0,0,1.76.8A10.74,10.74,0,0,1,200,83.47Z" fill="#2d2d2d"/><path d="M260.35,244.53c-48.16,59.4-78.9,101.16-78.9,101.16l-4.87,15.2c-1.05,12.81,21.06,11.5,36.43,10.82a17.44,17.44,0,0,0,8.25-2.5l3.33-2a8.83,8.83,0,0,0,1.87-1.52c37.22-40.21,61.46-101.57,61.46-101.57s.25-11.57-10-18.38A17.22,17.22,0,0,0,260.35,244.53Z" fill="#a5a7a7"/><polyline points="450.08 143 452.22 139.92 462.89 140.54 467.15 167.96 456.06 230.28 451.55 239.55 440.83 237.66" fill="#fff" stroke="#2d2d2d" stroke-miterlimit="10" stroke-width="0.5"/><polygon points="450.16 141.91 454.69 166.87 446.89 226.33 441.31 238.21 418.96 233.09 415.19 232.59 414.07 231.35 411.19 232.43 408.34 230.42 403.76 230.54 402.5 227.64 405.6 216.53 406.65 205.71 398.17 196.55 428.89 178.29 442.55 160.53 446.26 147.49 450.16 141.91" fill="#252a31"/><polyline points="452.15 140.44 457.57 164.32 449.63 224.87 444.57 237.96" fill="none" stroke="#2d2d2d" stroke-linecap="round" stroke-miterlimit="10"/><polygon points="434.07 227.94 435.56 204.02 447.3 188.36 448.03 182.81 443.36 181.47 442.82 185.6 432.33 199.39 430.32 203.6 429.12 229.49 434.07 227.94" fill="#fff"/><polygon points="442.29 169.45 444.03 167.3 441.14 165.64 437.25 166.05 437.02 167.84 442.29 169.45" fill="#fff"/><polygon points="433.05 173.47 433.9 171.64 437.54 171.44 439.87 172.6 438.98 174.74 435.55 173.92 433.05 173.47" fill="#fff"/><polygon points="436.35 180.55 437.1 178.82 434.54 176.53 431 176.07 430.82 177.51 436.35 180.55" fill="#fff"/><polyline points="432.74 185.13 434.15 184.16 431.14 180.59 427.06 179.69 427.67 182.45 430.05 183.37 432.5 185.1" fill="#fff"/><polygon points="428.57 190 430.01 188.3 424.9 183.56 421.6 183.67 420.47 184.84 424.49 187.21 428.57 190" fill="#fff"/><polygon points="423.41 194.02 425.36 191.96 421.72 188.47 417.87 187.08 416.24 188.81 423.41 194.02" fill="#fff"/><polygon points="417.97 196.96 420 196.43 416.55 189.04 414.5 189.5 417.97 196.96" fill="#fff"/><polygon points="412.42 200.25 414.56 199.25 415.84 189.49 413.57 189.19 412.42 200.25" fill="#fff"/><path d="M164.73,249.66v-9.11H157.9v7.18H129.77v-7.18h-6.83v9.11c0,7.43-1.76,22.93-17.19,28.2a3.91,3.91,0,0,0-2.63,3.71V298a3.48,3.48,0,0,0,3.48,3.48h74.46a3.48,3.48,0,0,0,3.49-3.48V281.57a3.91,3.91,0,0,0-2.63-3.71C166.49,272.59,164.73,257.09,164.73,249.66Z" fill="#ef7e81"/><path d="M143.29,283.39a297.4,297.4,0,0,1-40.13-2.4,3.69,3.69,0,0,0,0,.58V298a3.48,3.48,0,0,0,3.48,3.48h74.46a3.48,3.48,0,0,0,3.49-3.48V281.57a4.4,4.4,0,0,0-.07-.73A294.09,294.09,0,0,1,143.29,283.39Z" fill="#e74b52" opacity="0.25"/><line x1="122.94" y1="240.9" x2="129.77" y2="240.9" fill="none" stroke="#e74b52" stroke-miterlimit="10" stroke-width="11" opacity="0.75"/><line x1="157.9" y1="240.9" x2="164.73" y2="240.9" fill="none" stroke="#e74b52" stroke-miterlimit="10" stroke-width="11" opacity="0.75"/><path d="M167.56,164.8l3.38-3.19a2.83,2.83,0,0,0,.12-4l-11.55-12.27a2.83,2.83,0,0,0-4-.12l-2.72,2.56a4.93,4.93,0,0,1-7-.21l-26.75-28.4a4.94,4.94,0,0,1,.21-7l2.73-2.56a2.84,2.84,0,0,0,.12-4l-8.37-8.89a7.48,7.48,0,0,0-10.57-.32h0a18.19,18.19,0,0,0-.77,25.71L141.85,164A18.19,18.19,0,0,0,167.56,164.8Z" fill="#ef7e81"/><rect x="150.79" y="149.12" width="23.83" height="9.57" rx="4.53" transform="translate(162.2 377.86) rotate(-133.28)" fill="#e74b52"/><rect x="101.84" y="97.13" width="23.83" height="9.57" rx="4.53" transform="translate(117.54 254.6) rotate(-133.28)" fill="#e74b52"/><path d="M103.12,296.42V298a3.48,3.48,0,0,0,3.48,3.48h74.46a3.48,3.48,0,0,0,3.49-3.48v-1.54Z" fill="#e74b52" opacity="0.75"/><path d="M143.83,251.68A18.14,18.14,0,1,0,162,269.81,18.13,18.13,0,0,0,143.83,251.68Zm0,23a4.83,4.83,0,1,1,4.83-4.83A4.82,4.82,0,0,1,143.83,274.64Z" fill="#fff"/><path d="M150.15,260.06a2.1,2.1,0,1,1-1.14-2.74A2.1,2.1,0,0,1,150.15,260.06Zm-5.37-1.83a2.1,2.1,0,1,1-2.29-1.88A2.1,2.1,0,0,1,144.78,258.23Zm-5.59.92a2.1,2.1,0,1,1-2.91-.58A2.1,2.1,0,0,1,139.19,259.15Zm-4.5,3.45a2.1,2.1,0,1,1-2.84.86A2.11,2.11,0,0,1,134.69,262.6Zm-2.35,5.16a2.1,2.1,0,1,1-2.1,2.1A2.1,2.1,0,0,1,132.34,267.76Zm.37,5.66a2.1,2.1,0,1,1-.86,2.84A2.1,2.1,0,0,1,132.71,273.42Zm3,4.82a2.1,2.1,0,1,1,.57,2.91A2.1,2.1,0,0,1,135.7,278.24Zm4.9,2.84a2.1,2.1,0,1,1,1.89,2.3A2.11,2.11,0,0,1,140.6,281.08Zm5.67.19a2.1,2.1,0,1,1,2.74,1.14A2.1,2.1,0,0,1,146.27,281.27Zm5.09-2.5a2.1,2.1,0,1,1,2.95-.28A2.09,2.09,0,0,1,151.36,278.77Z" fill="#ef7e81"/><path d="M107.3,147.67l12.9-6.58L116,136.47s-4.42-2.3,2.56-9.93c1.59-1.74,11.54-9.23,11.2-11.31-.49-3-5.86-11.15-17.21-4.28,0,0-15.57,13.27-16.15,32.88Z" fill="#f7b290"/><rect x="300.87" y="414.94" width="44.03" height="14.89" fill="#cee0f5"/><rect x="344.9" y="414.94" width="44.03" height="14.89" fill="#a6c7eb"/><rect x="287.21" y="400.05" width="44.03" height="14.89" fill="#dbe8f8"/><rect x="331.24" y="400.05" width="44.03" height="14.89" fill="#96c0e8"/><polyline points="429.71 363.19 433.36 364.04 436.72 374.19 412.81 388.27 350.8 400.96 340.51 400.2 338.31 389.54" fill="#fff" stroke="#2d2d2d" stroke-miterlimit="10" stroke-width="0.5"/><polygon points="430.75 362.87 409.22 376.29 351.08 390.99 337.98 390.19 334.49 367.52 333.56 363.83 334.3 362.33 332.23 360.06 333.06 356.67 331.24 352.46 333.48 350.21 344.94 348.99 355.39 345.98 360.77 334.71 389.08 356.52 410.63 362.66 424.12 361.3 430.75 362.87" fill="#252a31"/><polyline points="432.85 364.17 412.65 378.02 353.45 392.99 339.41 393.12" fill="none" stroke="#2d2d2d" stroke-linecap="round" stroke-miterlimit="10"/><polygon points="344.85 379.67 367.64 372.22 386.52 377.35 391.95 375.98 391.47 371.15 387.43 372.17 370.74 367.51 366.08 367.19 341.59 375.63 344.85 379.67" fill="#fff"/><polygon points="402.25 365.71 404.89 366.54 405.36 363.24 403.55 359.78 401.79 360.22 402.25 365.71" fill="#fff"/><polygon points="395.1 358.61 397.12 358.73 398.64 362.04 398.42 364.62 396.11 364.59 395.6 361.1 395.1 358.61" fill="#fff"/><polygon points="389.74 364.29 391.62 364.35 392.8 361.12 391.93 357.67 390.52 358.02 389.74 364.29" fill="#fff"/><polyline points="384.15 362.63 385.57 363.57 387.77 359.47 387.1 355.34 384.76 356.93 384.79 359.48 384.09 362.39" fill="#fff"/><polygon points="378.08 360.55 380.19 361.26 382.71 354.76 381.39 351.74 379.89 351.12 379.16 355.73 378.08 360.55" fill="#fff"/><polygon points="372.44 357.24 375.08 358.29 376.98 353.62 376.85 349.52 374.63 348.65 372.44 357.24" fill="#fff"/><polygon points="367.7 353.27 368.94 354.96 374.54 349.02 373.36 347.29 367.7 353.27" fill="#fff"/><polygon points="362.6 349.32 364.31 350.95 373.86 348.53 373.3 346.31 362.6 349.32" fill="#fff"/><rect x="350.21" y="364.52" width="23.3" height="78.85" fill="#36498c"/><rect x="373.51" y="364.52" width="56.19" height="78.85" fill="#2d3a64"/><ellipse cx="361.86" cy="374.37" rx="3.89" ry="4.08" fill="#dee6f6"/><path d="M359.11,374.37a2.75,2.75,0,1,1,2.75,2.89A2.82,2.82,0,0,1,359.11,374.37Z" fill="#6372b5"/><rect x="356.47" y="384.2" width="10.96" height="20.77" fill="#92acda"/><rect x="400.89" y="414.98" width="44.03" height="14.89" fill="#cee0f5"/><rect x="444.92" y="414.98" width="44.03" height="14.89" fill="#a6c7eb"/><rect x="387.24" y="400.09" width="44.03" height="14.89" fill="#dbe8f8"/><rect x="431.27" y="400.09" width="44.03" height="14.89" fill="#96c0e8"/><rect x="367.09" y="429.92" width="129.64" height="100.47" fill="#ef7c4a"/><rect x="324.47" y="429.92" width="102.79" height="100.47" fill="#f18a68"/><rect x="353.7" y="439.63" width="32.62" height="6.69" rx="3.35" fill="#2d3a64"/><rect x="361.52" y="267.98" width="89.64" height="17.54" fill="#cbd5ee"/><rect x="451.16" y="267.98" width="60.44" height="17.54" fill="#687bbb"/><polygon points="421.16 232.23 443.63 214.14 476.98 218.21 476.98 232.23 421.16 232.23" fill="#ef7c4a"/><rect x="406.59" y="195.28" width="18.27" height="55.82" transform="translate(638.91 -192.54) rotate(90)" fill="#f18a68"/><path d="M436.66,220.34a2.89,2.89,0,1,1-2.88,2.89A2.89,2.89,0,0,1,436.66,220.34Z" fill="#dee6f6"/><path d="M436.66,221.61a1.62,1.62,0,1,1,0,3.23,1.62,1.62,0,0,1,0-3.23Z" fill="#21244c"/><rect x="417" y="214.65" width="8.14" height="17.28" transform="translate(644.36 -197.78) rotate(90)" fill="#c0d7f1"/><rect x="391.17" y="250.15" width="55.31" height="17.83" fill="#dee6f6"/><rect x="446.49" y="250.15" width="55.32" height="17.83" fill="#8d9ace"/><rect x="374.01" y="232.32" width="55.32" height="17.83" fill="#e9effa"/><rect x="429.33" y="232.32" width="55.31" height="17.83" fill="#bcc7e7"/><rect x="329.97" y="284.75" width="49.17" height="17.83" fill="#e9effa"/><polygon points="511.95 302.58 379.13 302.58 379.13 284.75 511.61 284.75 511.95 302.58" fill="#8d9ace"/><rect x="398.08" y="335.6" width="19.96" height="64.39" fill="#ee7d2c"/><rect x="418.04" y="335.6" width="48.14" height="64.39" fill="#f49749"/><circle cx="408.06" cy="343.64" r="3.33" transform="translate(-123.47 389.19) rotate(-45)" fill="#dee6f6"/><path d="M405.71,343.64a2.36,2.36,0,1,1,2.35,2.35A2.36,2.36,0,0,1,405.71,343.64Z" fill="#6372b5"/><rect x="403.44" y="351.66" width="9.39" height="16.96" fill="#92acda"/><rect x="65.02" y="300.92" width="475.14" height="13.31" rx="6.65" fill="#ba997b"/><path d="M73.66,533.46l-.16,0a3.38,3.38,0,0,1-3-3.76L99.23,307.57l16.09.47L76.74,531.23A2.77,2.77,0,0,1,73.66,533.46Z" fill="#ba997b"/><path d="M541.61,533.46l.15,0a3.39,3.39,0,0,0,3-3.76L516,307.57,500,308l38.58,223.19A2.76,2.76,0,0,0,541.61,533.46Z" fill="#ba997b"/><path d="M165.15,166.6a6.79,6.79,0,0,1-10.25,8.91c3.17-2.51,8.46.53,8.81,4.56s-3.05,7.67-6.93,8.81-8.07.3-11.92-.93c-1-.33-2.31-1.26-1.78-2.21,1.68-1.87,5.18-.94,6.22,1.35s0,5.12-1.93,6.76a12.8,12.8,0,0,1-7,2.56,30.56,30.56,0,0,1-11.84-1c.6-2,3.66-2,5.27-.62,3.47,2.89,2.75,8.84-.46,12s-8,4.13-12.52,4.31c-1.68.07-4-.8-3.53-2.41a7.44,7.44,0,0,1,7.38,12.67c-1.78,1.49-4.15,2.07-6.08,3.35-4.28,2.83-3.23,8.48-2.7,13.59.58,5.55,5.86,19.53,10.09,16.62" fill="none" stroke="#ef7e81" stroke-linecap="round" stroke-linejoin="round" stroke-width="3"/><ellipse cx="352.33" cy="86.81" rx="92.88" ry="43.21" fill="#e2e1e1"/><path d="M239.16,115.68c-1.09-.37-2.52-.71-3.22.21-.57.75-.19,1.85.31,2.65,3.05,4.94,9.38,6.68,15.17,7a53.44,53.44,0,0,0,26.9-5.34c3-1.49,6-3.36,8-6.12,3-4.18-5.85-7.25-9-7.45-4-.26-6.74,2.43-9.87,4.5C259.07,116.71,248.85,119,239.16,115.68Z" fill="#e2e1e1"/></svg>